<?xml version="1.0" encoding="UTF-8"?>
<!-- Generator: visioncortex VTracer 0.6.12 -->
<svg version="1.1" xmlns="http://www.w3.org/2000/svg" width="512" height="512">
<path d="M0 0 C1.785 0.098 1.785 0.098 4 1 C5.347 3.148 6.394 5.145 7.438 7.438 C8.136 8.899 8.835 10.36 9.535 11.82 C9.922 12.638 10.309 13.455 10.708 14.298 C13.197 19.502 15.793 24.654 18.375 29.812 C18.935 30.933 19.494 32.054 20.071 33.208 C23.401 39.861 26.781 46.482 30.25 53.062 C30.643 53.816 31.036 54.57 31.441 55.346 C33.454 59.18 35.541 62.944 37.758 66.664 C38.197 67.425 38.636 68.185 39.089 68.969 C39.92 70.402 40.776 71.821 41.661 73.221 C43.276 76.048 44.3 77.846 43.457 81.088 C42.445 83.193 41.316 85.073 40 87 C39.389 87.907 38.778 88.815 38.148 89.75 C37.563 90.493 36.978 91.235 36.375 92 C35.785 92.763 35.194 93.526 34.586 94.312 C34.063 94.869 33.539 95.426 33 96 C32.34 96 31.68 96 31 96 C30.737 96.74 30.474 97.48 30.203 98.242 C28.99 101.024 27.705 102.821 25.75 105.125 C21.792 109.947 18.064 114.907 14.375 119.938 C13.778 120.751 13.181 121.564 12.566 122.401 C10.71 124.933 8.855 127.467 7 130 C-0.032 139.593 -7.083 149.157 -14.371 158.559 C-18.295 163.66 -22.081 168.864 -25.89 174.052 C-29.15 178.493 -32.429 182.916 -35.75 187.312 C-40.625 193.786 -45.315 200.388 -50 207 C-33.642 207.149 -17.343 206.705 -1 206 C-0.627 212.578 -2.033 218.548 -3.5 224.938 C-3.619 225.47 -3.619 225.47 -4.223 228.166 C-4.809 230.779 -5.401 233.39 -6 236 C-5.529 236.199 -5.529 236.199 -3.145 237.206 C0.402 238.705 3.949 240.205 7.495 241.707 C9.02 242.352 10.545 242.997 12.071 243.641 C20.768 247.315 29.436 251.024 38 255 C35.988 262.288 33.403 269.176 30.438 276.125 C29.543 278.246 28.648 280.367 27.754 282.488 C27.298 283.565 26.842 284.643 26.372 285.752 C24.185 290.93 22.032 296.122 19.875 301.312 C15.611 311.553 11.314 321.78 7 332 C5.582 331.546 4.166 331.086 2.75 330.625 C1.961 330.37 1.172 330.115 0.359 329.852 C-2 329 -2 329 -4.109 327.898 C-6 327 -6 327 -9 327 C-9.15 327.313 -9.15 327.313 -9.911 328.898 C-10.826 330.805 -11.742 332.712 -12.657 334.619 C-13.733 336.86 -14.808 339.101 -15.884 341.342 C-18.639 347.082 -21.394 352.821 -24.152 358.559 C-24.657 359.608 -25.161 360.657 -25.68 361.738 C-26.685 363.828 -27.689 365.918 -28.695 368.008 C-31.001 372.808 -33.294 377.614 -35.543 382.441 C-35.939 383.289 -36.335 384.137 -36.743 385.01 C-37.462 386.551 -38.175 388.093 -38.884 389.638 C-40.759 393.658 -42.835 397.47 -45.133 401.266 C-45.671 402.156 -46.209 403.045 -46.762 403.962 C-47.171 404.635 -47.579 405.307 -48 406 C-67.512 404.684 -87.013 403.263 -106.512 401.758 C-109.265 401.546 -112.019 401.334 -114.772 401.123 C-120.509 400.681 -126.246 400.239 -131.983 399.796 C-137.748 399.351 -143.514 398.907 -149.279 398.464 C-172.843 396.653 -172.843 396.653 -182.996 395.863 C-183.674 395.81 -184.352 395.758 -185.051 395.703 C-187.76 395.492 -190.468 395.282 -193.176 395.071 C-201.622 394.413 -210.069 393.767 -218.517 393.136 C-223.247 392.781 -227.977 392.42 -232.707 392.056 C-234.897 391.89 -237.088 391.727 -239.279 391.567 C-242.253 391.35 -245.226 391.121 -248.198 390.89 C-248.635 390.86 -248.635 390.86 -250.843 390.706 C-256.772 390.228 -256.772 390.228 -259 388 C-259.527 385.473 -259.527 385.473 -259.938 382.062 C-260.015 381.437 -260.092 380.811 -260.171 380.166 C-260.46 377.778 -260.731 375.39 -261 373 C-261.126 371.894 -261.251 370.788 -261.38 369.648 C-262.272 361.768 -263.143 353.885 -264 346 C-264.619 345.975 -265.239 345.95 -265.877 345.924 C-268.73 345.807 -271.584 345.685 -274.438 345.562 C-275.411 345.523 -276.385 345.484 -277.389 345.443 C-283.301 345.186 -289.126 344.723 -295 344 C-295.766 341.922 -295.766 341.922 -296 339 C-294.683 336.546 -293.376 334.482 -291.75 332.25 C-290.829 330.932 -289.91 329.613 -288.992 328.293 C-288.506 327.601 -288.02 326.909 -287.519 326.197 C-284.879 322.378 -282.383 318.468 -279.875 314.562 C-278.935 313.105 -277.995 311.648 -277.055 310.191 C-276.377 309.138 -275.699 308.085 -275 307 C-278.36 307.663 -280.921 308.945 -283.879 310.652 C-284.339 310.917 -284.339 310.917 -286.67 312.256 C-287.624 312.811 -288.579 313.366 -289.562 313.938 C-290.042 314.213 -290.042 314.213 -292.467 315.607 C-296.037 317.667 -299.569 319.713 -303 322 C-303.99 322 -304.98 322 -306 322 C-306.33 320.68 -306.66 319.36 -307 318 C-296.576 311.308 -285.941 305.04 -275.194 298.883 C-266.537 293.913 -257.971 288.805 -249.427 283.644 C-240.668 278.367 -231.825 273.246 -222.939 268.186 C-217.019 264.8 -211.217 261.289 -205.499 257.572 C-202.077 255.419 -198.54 253.518 -194.977 251.613 C-190.866 249.386 -186.819 247.053 -182.77 244.715 C-178.175 242.07 -178.175 242.07 -175.797 241.117 C-173.068 239.42 -172.133 237.208 -170.688 234.375 C-170.155 233.372 -169.623 232.369 -169.074 231.336 C-167.738 227.186 -168.125 224.16 -169 220 C-169.221 218.948 -169.441 217.897 -169.669 216.813 C-170.5 212.994 -171.371 209.184 -172.25 205.375 C-172.565 203.998 -172.879 202.621 -173.194 201.244 C-173.825 198.481 -174.457 195.718 -175.092 192.956 C-176.163 188.295 -177.221 183.632 -178.278 178.969 C-179.183 174.979 -180.092 170.989 -181 167 C-186.045 173.651 -190.612 180.464 -194.983 187.566 C-200.104 195.854 -205.554 203.923 -211 212 C-214.098 210.622 -216.204 209.041 -218.588 206.639 C-219.272 205.955 -219.956 205.271 -220.661 204.565 C-221.39 203.826 -222.12 203.086 -222.871 202.324 C-223.63 201.562 -224.39 200.8 -225.172 200.015 C-227.599 197.577 -230.018 195.132 -232.438 192.688 C-234.063 191.052 -235.688 189.418 -237.314 187.783 C-240.958 184.12 -244.597 180.451 -248.233 176.78 C-249.759 175.243 -251.292 173.712 -252.827 172.183 C-254.517 170.485 -256.166 168.776 -257.777 167.004 C-267.749 156.136 -278.167 145.735 -288.635 135.349 C-289.025 134.962 -289.025 134.962 -291 133 C-291.924 132.118 -292.848 131.236 -293.801 130.327 C-296 128 -296 128 -296 126 C-296.566 125.76 -297.132 125.52 -297.715 125.273 C-300.473 123.736 -302.352 121.877 -304.562 119.625 C-305.327 118.854 -306.091 118.083 -306.879 117.289 C-307.579 116.534 -308.279 115.778 -309 115 C-309.628 114.348 -310.256 113.695 -310.902 113.023 C-311.265 112.356 -311.627 111.688 -312 111 C-310.883 107.471 -309.265 104.726 -307.059 101.777 C-306.48 100.998 -305.901 100.218 -305.304 99.415 C-304.688 98.598 -304.072 97.78 -303.438 96.938 C-302.803 96.087 -302.169 95.236 -301.516 94.36 C-299.683 91.903 -297.842 89.451 -296 87 C-295.165 85.883 -294.33 84.766 -293.496 83.648 C-291.337 80.761 -289.169 77.88 -287 75 C-275.516 59.744 -275.516 59.744 -271 53.5 C-270.693 53.079 -270.693 53.079 -269.141 50.949 C-267.941 49.297 -266.745 47.642 -265.561 45.979 C-263.969 43.748 -262.361 41.53 -260.75 39.312 C-260.242 38.592 -259.734 37.871 -259.211 37.129 C-258.724 36.464 -258.236 35.799 -257.734 35.113 C-257.304 34.513 -256.873 33.913 -256.429 33.294 C-255 32 -255 32 -251 32 C-246.966 34.482 -243.753 38.202 -240.704 41.78 C-237.306 45.696 -233.74 49.383 -230.055 53.027 C-229.4 53.678 -228.746 54.33 -228.072 55.001 C-226.666 56.399 -225.259 57.797 -223.852 59.193 C-221.626 61.401 -219.405 63.612 -217.184 65.825 C-210.875 72.11 -204.56 78.388 -198.241 84.663 C-194.364 88.513 -190.492 92.368 -186.624 96.226 C-185.149 97.694 -183.673 99.16 -182.194 100.625 C-180.138 102.662 -178.088 104.705 -176.039 106.75 C-175.424 107.356 -174.808 107.963 -174.174 108.588 C-170 112.772 -170 112.772 -170 115 C-169.01 115.33 -168.02 115.66 -167 116 C-167 116.66 -167 117.32 -167 118 C-163.532 120.19 -161.434 120.054 -157.459 119.294 C-156.395 119.093 -155.331 118.891 -154.235 118.683 C-149.348 117.651 -144.498 116.507 -139.652 115.293 C-137.563 114.784 -135.474 114.275 -133.385 113.768 C-130.137 112.974 -126.891 112.176 -123.648 111.364 C-120.486 110.574 -117.32 109.807 -114.152 109.043 C-113.177 108.793 -112.202 108.543 -111.198 108.286 C-110.296 108.072 -109.394 107.858 -108.465 107.637 C-107.673 107.441 -106.88 107.245 -106.064 107.043 C-104 107 -104 107 -102.278 108.238 C-100.156 111.163 -99.879 114.598 -99.309 118.09 C-99.162 118.922 -99.016 119.754 -98.865 120.611 C-98.547 122.428 -98.233 124.246 -97.925 126.065 C-97.087 131.005 -96.211 135.938 -95.34 140.871 C-95.156 141.917 -94.973 142.963 -94.783 144.04 C-92.309 158.054 -89.555 172.017 -86.817 185.982 C-86.177 189.248 -85.542 192.514 -84.906 195.781 C-84.81 196.27 -84.81 196.27 -84.32 198.743 C-84.146 199.643 -83.971 200.543 -83.791 201.471 C-83.637 202.253 -83.484 203.035 -83.326 203.841 C-83 206 -83 206 -83 210 C-82.495 209.928 -82.495 209.928 -79.938 209.562 C-75.7 209.026 -71.453 208.737 -67.191 208.465 C-66.498 208.42 -65.805 208.375 -65.091 208.328 C-63.394 208.218 -61.697 208.109 -60 208 C-60.18 207.448 -60.361 206.897 -60.547 206.328 C-61.426 203.641 -62.305 200.953 -63.184 198.266 C-63.515 197.253 -63.846 196.24 -64.188 195.196 C-66.009 189.626 -67.827 184.055 -69.642 178.483 C-70.374 176.239 -71.105 173.994 -71.836 171.75 C-72.197 170.642 -72.558 169.534 -72.93 168.393 C-74.737 162.85 -76.555 157.311 -78.402 151.782 C-79.069 149.784 -79.732 147.784 -80.393 145.784 C-81.152 143.49 -81.92 141.199 -82.699 138.911 C-83.026 137.914 -83.354 136.918 -83.691 135.891 C-83.832 135.473 -83.832 135.473 -84.541 133.36 C-85.331 129.295 -84.414 126.677 -82.285 123.195 C-81.552 122.182 -80.818 121.169 -80.062 120.125 C-79.238 118.97 -78.415 117.813 -77.594 116.656 C-77.166 116.057 -76.738 115.457 -76.297 114.84 C-74.16 111.808 -72.111 108.717 -70.062 105.625 C-69.647 104.999 -69.231 104.374 -68.803 103.729 C-67.957 102.455 -67.111 101.181 -66.266 99.907 C-64.182 96.768 -62.091 93.634 -60 90.5 C-59.164 89.246 -58.328 87.992 -57.492 86.738 C-56.256 84.883 -55.019 83.028 -53.782 81.173 C-53.382 80.573 -52.982 79.974 -52.57 79.355 C-49.135 74.203 -45.701 69.051 -42.266 63.898 C-42.03 63.545 -42.03 63.545 -40.838 61.757 C-39.857 60.285 -38.876 58.814 -37.894 57.343 C-34.901 52.854 -31.912 48.364 -28.926 43.871 C-28.223 42.815 -27.521 41.759 -26.797 40.672 C-25.429 38.614 -24.061 36.557 -22.695 34.498 C-19.049 29.02 -15.342 23.597 -11.517 18.241 C-9.53 15.306 -7.871 12.238 -6.199 9.117 C-4.371 5.89 -2.214 2.973 0 0 Z " fill="#957D5C" transform="translate(384,27)"/>
<path d="M0 0 C5.427 1.447 8.239 5.123 11.846 9.157 C13.188 10.622 14.531 12.085 15.877 13.547 C16.562 14.292 17.247 15.037 17.953 15.805 C21.086 19.165 24.321 22.419 27.578 25.66 C28.213 26.292 28.848 26.925 29.503 27.577 C30.814 28.88 32.126 30.182 33.438 31.483 C35.53 33.557 37.618 35.635 39.705 37.714 C45.625 43.609 51.551 49.499 57.48 55.384 C61.139 59.017 64.793 62.654 68.444 66.294 C69.83 67.673 71.217 69.05 72.606 70.425 C74.529 72.33 76.447 74.24 78.363 76.152 C78.938 76.718 79.513 77.284 80.105 77.867 C84 81.772 84 81.772 84 84 C84.99 84.33 85.98 84.66 87 85 C87 85.66 87 86.32 87 87 C90.468 89.19 92.566 89.054 96.541 88.294 C97.605 88.093 98.669 87.891 99.765 87.683 C104.652 86.651 109.502 85.507 114.348 84.293 C116.437 83.784 118.526 83.275 120.615 82.768 C123.863 81.974 127.109 81.176 130.352 80.364 C133.514 79.574 136.68 78.807 139.848 78.043 C140.823 77.793 141.798 77.543 142.802 77.286 C143.704 77.072 144.606 76.858 145.535 76.637 C146.327 76.441 147.12 76.245 147.936 76.043 C150 76 150 76 151.722 77.238 C153.844 80.163 154.121 83.598 154.691 87.09 C154.838 87.921 154.984 88.753 155.134 89.609 C155.453 91.426 155.766 93.243 156.074 95.062 C156.916 100.021 157.797 104.973 158.672 109.926 C158.856 110.974 159.04 112.023 159.23 113.103 C161.638 126.742 164.305 140.332 166.956 153.926 C173.128 185.581 173.128 185.581 174.875 199.875 C176.011 208.822 177.69 217.675 179.324 226.542 C179.539 227.72 179.755 228.897 179.977 230.109 C180.075 230.64 180.075 230.64 180.573 233.327 C181 236 181 236 181 239 C172.339 240.705 163.642 241.877 154.883 242.945 C153.453 243.122 152.024 243.298 150.594 243.475 C147.621 243.842 144.647 244.206 141.674 244.569 C137.871 245.033 134.068 245.503 130.266 245.974 C127.323 246.339 124.381 246.7 121.438 247.06 C120.035 247.233 118.633 247.406 117.23 247.58 C115.274 247.822 113.317 248.06 111.36 248.297 C110.249 248.433 109.139 248.57 107.995 248.71 C105.304 248.971 102.701 249.056 100 249 C96.496 237.489 93.948 225.868 91.5 214.095 C88.304 198.781 88.304 198.781 86.109 191.398 C82.964 180.776 80.692 169.926 78.25 159.125 C77.739 156.876 77.227 154.628 76.715 152.379 C75.473 146.92 74.235 141.46 73 136 C68.519 142.059 64.149 148.112 60.25 154.562 C54.739 163.534 48.886 172.271 43 181 C39.902 179.622 37.796 178.041 35.412 175.639 C34.728 174.955 34.044 174.271 33.339 173.565 C32.61 172.826 31.88 172.086 31.129 171.324 C30.37 170.562 29.61 169.8 28.828 169.015 C26.401 166.577 23.982 164.132 21.562 161.688 C19.937 160.052 18.312 158.418 16.686 156.783 C13.042 153.12 9.403 149.451 5.767 145.78 C4.241 144.243 2.708 142.712 1.173 141.183 C-0.517 139.485 -2.166 137.776 -3.777 136.004 C-13.749 125.136 -24.167 114.735 -34.635 104.349 C-35.025 103.962 -35.025 103.962 -37 102 C-37.924 101.118 -38.848 100.236 -39.801 99.327 C-42 97 -42 97 -42 95 C-42.566 94.76 -43.132 94.52 -43.715 94.273 C-46.473 92.736 -48.352 90.877 -50.562 88.625 C-51.327 87.854 -52.091 87.083 -52.879 86.289 C-53.579 85.534 -54.279 84.778 -55 84 C-55.628 83.348 -56.256 82.695 -56.902 82.023 C-57.265 81.356 -57.627 80.688 -58 80 C-56.883 76.471 -55.265 73.726 -53.059 70.777 C-52.48 69.998 -51.901 69.218 -51.304 68.415 C-50.688 67.598 -50.072 66.78 -49.438 65.938 C-48.803 65.087 -48.169 64.236 -47.516 63.36 C-45.683 60.903 -43.842 58.451 -42 56 C-41.165 54.883 -40.33 53.766 -39.496 52.648 C-37.337 49.761 -35.169 46.88 -33 44 C-26.994 36.022 -21.005 28.037 -15.152 19.945 C-12.318 16.067 -9.443 12.219 -6.562 8.375 C-6.029 7.663 -5.496 6.951 -4.947 6.217 C-4.45 5.555 -3.953 4.893 -3.441 4.211 C-2.995 3.616 -2.548 3.021 -2.088 2.408 C-1 1 -1 1 0 0 Z " fill="#F7ECEC" transform="translate(130,58)"/>
<path d="M0 0 C5.124 1.55 9.769 3.713 14.555 6.07 C14.964 6.27 14.964 6.27 17.037 7.282 C19.651 8.56 22.263 9.842 24.875 11.125 C26.591 11.964 28.307 12.802 30.023 13.641 C40.378 18.703 50.701 23.826 61 29 C61 30.65 61 32.3 61 34 C59.582 33.546 58.166 33.086 56.75 32.625 C55.961 32.37 55.172 32.115 54.359 31.852 C52 31 52 31 49.891 29.898 C48 29 48 29 45 29 C44.85 29.313 44.85 29.313 44.089 30.898 C43.174 32.805 42.258 34.712 41.343 36.619 C40.267 38.86 39.192 41.101 38.116 43.342 C35.361 49.082 32.606 54.821 29.848 60.559 C29.343 61.608 28.839 62.657 28.32 63.738 C27.315 65.828 26.311 67.918 25.305 70.008 C22.999 74.808 20.706 79.614 18.457 84.441 C18.061 85.289 17.665 86.137 17.257 87.01 C16.538 88.551 15.825 90.093 15.116 91.638 C13.241 95.658 11.165 99.47 8.867 103.266 C8.329 104.156 7.791 105.045 7.238 105.962 C6.829 106.635 6.421 107.307 6 108 C-13.512 106.684 -33.013 105.263 -52.512 103.758 C-55.265 103.546 -58.019 103.334 -60.772 103.123 C-66.509 102.681 -72.246 102.239 -77.983 101.796 C-83.748 101.351 -89.514 100.907 -95.279 100.464 C-118.843 98.653 -118.843 98.653 -128.996 97.863 C-129.674 97.81 -130.352 97.758 -131.051 97.703 C-133.76 97.492 -136.468 97.282 -139.176 97.071 C-147.622 96.413 -156.069 95.767 -164.517 95.136 C-169.247 94.781 -173.977 94.42 -178.707 94.056 C-180.897 93.89 -183.088 93.727 -185.279 93.567 C-188.253 93.35 -191.226 93.121 -194.198 92.89 C-195.071 92.829 -195.944 92.768 -196.843 92.706 C-202.772 92.228 -202.772 92.228 -205 90 C-205.527 87.473 -205.527 87.473 -205.938 84.062 C-206.015 83.437 -206.092 82.811 -206.171 82.166 C-206.46 79.778 -206.731 77.39 -207 75 C-207.126 73.894 -207.251 72.788 -207.38 71.648 C-208.272 63.768 -209.143 55.885 -210 48 C-210.619 47.975 -211.239 47.95 -211.877 47.924 C-214.73 47.807 -217.584 47.685 -220.438 47.562 C-220.924 47.543 -220.924 47.543 -223.389 47.443 C-229.301 47.186 -235.126 46.723 -241 46 C-241.33 44.68 -241.66 43.36 -242 42 C-230.631 41.863 -219.321 42.297 -207.966 42.81 C-205.984 42.898 -204.001 42.985 -202.019 43.071 C-196.674 43.306 -191.329 43.545 -185.984 43.784 C-180.37 44.035 -174.755 44.283 -169.141 44.532 C-159.718 44.949 -150.295 45.369 -140.872 45.79 C-130.001 46.276 -119.13 46.759 -108.259 47.239 C-97.768 47.702 -87.277 48.168 -76.786 48.635 C-72.336 48.834 -67.886 49.031 -63.436 49.228 C-58.191 49.459 -52.946 49.693 -47.701 49.929 C-45.784 50.015 -43.866 50.1 -41.949 50.184 C-32.281 50.61 -22.637 51.073 -13 52 C-12.836 51.396 -12.671 50.792 -12.502 50.169 C-10.978 44.568 -9.454 38.967 -7.928 33.366 C-7.352 31.252 -6.777 29.139 -6.202 27.025 C-5.377 23.989 -4.55 20.954 -3.723 17.918 C-3.465 16.971 -3.208 16.024 -2.943 15.048 C-2.703 14.168 -2.463 13.287 -2.215 12.38 C-2.004 11.605 -1.793 10.83 -1.576 10.031 C-1.097 8.34 -0.556 6.667 0 5 C0.039 3.334 0.045 1.666 0 0 Z " fill="#B99C71" transform="translate(330,325)"/>
<path d="M0 0 C0.66 0 1.32 0 2 0 C2.19 1.061 2.38 2.121 2.576 3.214 C7.063 28.23 11.721 53.209 16.585 78.155 C22.152 106.775 22.152 106.775 23.875 120.875 C25.011 129.822 26.69 138.675 28.324 147.542 C28.539 148.72 28.755 149.897 28.977 151.109 C29.075 151.64 29.075 151.64 29.573 154.327 C30 157 30 157 30 160 C21.339 161.705 12.642 162.877 3.883 163.945 C2.453 164.122 1.024 164.298 -0.406 164.475 C-3.379 164.842 -6.353 165.206 -9.326 165.569 C-13.129 166.033 -16.932 166.503 -20.734 166.974 C-23.677 167.339 -26.619 167.7 -29.562 168.06 C-30.965 168.233 -32.367 168.406 -33.77 168.58 C-35.726 168.822 -37.683 169.06 -39.64 169.297 C-40.751 169.433 -41.861 169.57 -43.005 169.71 C-45.696 169.971 -48.299 170.056 -51 170 C-54.504 158.489 -57.052 146.868 -59.5 135.095 C-62.696 119.781 -62.696 119.781 -64.895 112.383 C-68.014 101.847 -70.268 91.088 -72.688 80.375 C-73.434 77.086 -74.182 73.798 -74.93 70.509 C-75.392 68.477 -75.852 66.445 -76.312 64.412 C-76.519 63.497 -76.727 62.581 -76.94 61.638 C-77.121 60.837 -77.302 60.035 -77.489 59.209 C-77.821 57.773 -78.166 56.34 -78.526 54.911 C-79.252 51.983 -79.797 49.023 -80.375 46.062 C-81.583 39.905 -82.954 33.802 -84.449 27.707 C-85 25 -85 25 -85 21 C-72.303 17.312 -59.555 14.248 -46.625 11.5 C-43.179 10.765 -39.734 10.025 -36.289 9.281 C-35.447 9.1 -34.604 8.919 -33.736 8.732 C-26.64 7.187 -19.604 5.431 -12.589 3.549 C-8.28 2.426 -4.498 1.744 0 2 C0 1.34 0 0.68 0 0 Z " fill="#EEEDDF" transform="translate(281,137)"/>
<path d="M0 0 C1.785 0.098 1.785 0.098 4 1 C5.347 3.148 6.394 5.145 7.438 7.438 C8.136 8.899 8.835 10.36 9.535 11.82 C9.922 12.638 10.309 13.455 10.708 14.298 C13.197 19.502 15.793 24.654 18.375 29.812 C18.935 30.933 19.494 32.054 20.071 33.208 C23.401 39.861 26.781 46.482 30.25 53.062 C30.643 53.816 31.036 54.57 31.441 55.346 C33.454 59.18 35.541 62.944 37.758 66.664 C38.197 67.425 38.636 68.185 39.089 68.969 C39.92 70.402 40.776 71.821 41.661 73.221 C43.276 76.048 44.3 77.846 43.457 81.088 C42.445 83.193 41.316 85.073 40 87 C39.389 87.907 38.778 88.815 38.148 89.75 C37.563 90.493 36.978 91.235 36.375 92 C35.785 92.763 35.194 93.526 34.586 94.312 C34.063 94.869 33.539 95.426 33 96 C32.34 96 31.68 96 31 96 C30.737 96.74 30.474 97.48 30.203 98.242 C28.99 101.024 27.705 102.821 25.75 105.125 C21.792 109.947 18.064 114.907 14.375 119.938 C14.077 120.344 14.077 120.344 12.566 122.401 C10.71 124.933 8.855 127.467 7 130 C-0.032 139.593 -7.083 149.157 -14.371 158.559 C-18.91 164.46 -23.276 170.492 -27.684 176.492 C-30.995 180.999 -34.338 185.479 -37.703 189.945 C-39.512 192.352 -41.313 194.764 -43.109 197.18 C-43.65 197.905 -44.191 198.631 -44.748 199.378 C-45.81 200.804 -46.87 202.231 -47.928 203.659 C-48.171 203.984 -48.171 203.984 -49.398 205.629 C-49.828 206.207 -50.258 206.785 -50.701 207.381 C-52.059 209.073 -53.341 210.597 -55 212 C-55.99 212 -56.98 212 -58 212 C-63.302 198.507 -67.694 184.756 -72.062 170.938 C-73.108 167.641 -74.155 164.344 -75.203 161.048 C-75.876 158.93 -76.547 156.812 -77.216 154.692 C-78.638 150.201 -80.077 145.722 -81.644 141.278 C-81.765 140.932 -81.765 140.932 -82.378 139.181 C-83.002 137.414 -83.642 135.653 -84.283 133.893 C-85.059 130.762 -84.972 129.049 -84 126 C-82.285 123.195 -82.285 123.195 -80.062 120.125 C-79.238 118.97 -78.415 117.813 -77.594 116.656 C-77.166 116.057 -76.738 115.457 -76.297 114.84 C-74.16 111.808 -72.111 108.717 -70.062 105.625 C-69.647 104.999 -69.231 104.374 -68.803 103.729 C-67.957 102.455 -67.111 101.181 -66.266 99.907 C-64.182 96.768 -62.091 93.634 -60 90.5 C-59.164 89.246 -58.328 87.992 -57.492 86.738 C-56.256 84.883 -55.019 83.028 -53.782 81.173 C-53.582 80.873 -53.582 80.873 -52.57 79.355 C-49.135 74.203 -45.701 69.051 -42.266 63.898 C-41.795 63.192 -41.323 62.485 -40.838 61.757 C-39.857 60.285 -38.876 58.814 -37.894 57.343 C-34.901 52.854 -31.912 48.364 -28.926 43.871 C-28.575 43.343 -28.575 43.343 -26.797 40.672 C-25.429 38.614 -24.061 36.557 -22.695 34.498 C-19.049 29.02 -15.342 23.597 -11.517 18.241 C-9.53 15.306 -7.871 12.238 -6.199 9.117 C-4.371 5.89 -2.214 2.973 0 0 Z " fill="#C8C9D2" transform="translate(384,27)"/>
<path d="M0 0 C0.373 6.578 -1.033 12.548 -2.5 18.938 C-2.738 20.003 -2.977 21.068 -3.223 22.166 C-3.809 24.779 -4.401 27.39 -5 30 C-4.058 30.398 -3.116 30.796 -2.145 31.206 C1.402 32.705 4.949 34.205 8.495 35.707 C10.02 36.352 11.545 36.997 13.071 37.641 C21.768 41.315 30.436 45.024 39 49 C36.988 56.288 34.403 63.176 31.438 70.125 C30.544 72.243 29.651 74.362 28.758 76.48 C28.302 77.557 27.846 78.634 27.376 79.744 C25.169 84.967 22.991 90.202 20.812 95.438 C20.4 96.427 19.988 97.417 19.563 98.436 C16.017 106.947 12.5 115.47 9 124 C8.51 123.427 8.02 122.855 7.516 122.264 C4.231 119.308 0.717 117.654 -3.254 115.77 C-3.661 115.572 -3.661 115.572 -5.723 114.573 C-8.333 113.312 -10.947 112.062 -13.562 110.812 C-15.263 109.992 -16.963 109.171 -18.662 108.35 C-30.079 102.839 -41.537 97.414 -53 92 C-51.592 89.117 -50.078 86.595 -48.164 84.016 C-47.882 83.635 -47.882 83.635 -46.457 81.707 C-46.155 81.302 -46.155 81.302 -44.625 79.25 C-43.997 78.403 -43.369 77.556 -42.723 76.684 C-38.358 70.802 -33.968 64.94 -29.561 59.09 C-26.765 55.373 -23.995 51.639 -21.246 47.887 C-20.613 47.022 -19.979 46.158 -19.326 45.268 C-18.092 43.582 -16.86 41.894 -15.631 40.205 C-15.071 39.44 -14.511 38.675 -13.934 37.887 C-13.439 37.208 -12.945 36.53 -12.435 35.831 C-11.06 34.076 -9.588 32.56 -8 31 C-8.307 31.006 -8.307 31.006 -9.86 31.038 C-16.334 31.17 -22.809 31.299 -29.283 31.427 C-31.689 31.475 -34.095 31.524 -36.501 31.573 C-50.002 31.848 -63.496 32.086 -77 32 C-77.838 27.897 -78.67 23.792 -79.5 19.688 C-79.738 18.52 -79.977 17.353 -80.223 16.15 C-80.448 15.032 -80.674 13.914 -80.906 12.762 C-81.116 11.73 -81.325 10.698 -81.541 9.635 C-82 7 -82 7 -82 4 C-74.025 2.671 -66.058 2.912 -58 3 C-57.67 3.99 -57.34 4.98 -57 6 C-52.125 3.125 -52.125 3.125 -51 2 C-49.586 1.849 -48.164 1.762 -46.743 1.703 C-45.838 1.663 -44.934 1.623 -44.002 1.582 C-43.016 1.543 -42.031 1.505 -41.016 1.465 C-40.008 1.422 -39 1.379 -37.962 1.335 C-34.725 1.198 -31.487 1.068 -28.25 0.938 C-26.081 0.846 -23.911 0.754 -21.742 0.662 C-19.667 0.575 -17.591 0.489 -15.516 0.402 C-14.538 0.362 -13.561 0.321 -12.554 0.279 C-11.637 0.242 -10.72 0.206 -9.774 0.168 C-8.971 0.135 -8.168 0.103 -7.341 0.069 C-4.893 -0.003 -2.449 -0.012 0 0 Z " fill="#887354" transform="translate(383,233)"/>
<path d="M0 0 C2.814 2.814 3.064 6.022 3.84 9.797 C4.007 10.582 4.175 11.367 4.348 12.176 C4.885 14.699 5.411 17.225 5.938 19.75 C6.288 21.405 6.639 23.06 6.99 24.715 C7.676 27.945 8.357 31.176 9.035 34.408 C10.336 40.61 11.667 46.805 13 53 C13.311 52.955 13.311 52.955 14.885 52.728 C32.606 50.189 50.356 47.929 68.125 45.75 C69.233 45.614 70.341 45.477 71.482 45.337 C74.657 44.946 77.832 44.558 81.008 44.172 C81.972 44.053 82.937 43.935 83.93 43.813 C84.374 43.759 84.374 43.759 86.622 43.487 C87.398 43.393 88.174 43.298 88.974 43.201 C91 43 91 43 94 43 C93.859 42.295 93.718 41.59 93.573 40.864 C90.289 24.445 90.289 24.445 89.634 21.149 C89.229 19.139 88.815 17.13 88.39 15.124 C88.207 14.256 88.024 13.387 87.836 12.492 C87.755 12.116 87.755 12.116 87.345 10.214 C86.966 7.78 86.942 5.46 87 3 C88.765 6.088 89 7.233 89 11 C89.907 10.934 90.815 10.869 91.75 10.801 C105.675 9.858 119.61 9.667 133.562 9.438 C136.038 9.394 138.514 9.351 140.99 9.307 C146.993 9.201 152.997 9.099 159 9 C158.057 10.258 157.113 11.516 156.17 12.774 C155.907 13.124 155.907 13.124 154.578 14.897 C153.147 16.804 151.715 18.709 150.281 20.613 C144.833 27.858 139.426 35.13 134.062 42.438 C129.347 48.855 124.583 55.233 119.75 61.562 C119.475 61.923 119.475 61.923 118.086 63.746 C117.578 64.409 117.07 65.071 116.547 65.754 C116.324 66.044 116.324 66.044 115.198 67.514 C114 69 114 69 112 71 C108.851 71.171 105.793 71.202 102.645 71.152 C101.61 71.144 100.576 71.136 99.51 71.127 C96.401 71.1 93.291 71.064 90.181 71.025 C86.125 70.979 82.069 70.948 78.013 70.915 C68.546 70.834 59.078 70.734 49.611 70.628 C44.621 70.572 39.632 70.522 34.642 70.473 C30.774 70.434 26.906 70.391 23.038 70.347 C21.195 70.327 19.353 70.308 17.51 70.291 C14.958 70.267 12.406 70.237 9.854 70.205 C9.099 70.2 8.343 70.194 7.564 70.188 C4.448 70.144 1.979 69.993 -1 69 C-2.521 56.757 -3.597 44.48 -4.625 32.188 C-4.693 31.38 -4.761 30.572 -4.832 29.74 C-5.028 27.403 -5.222 25.067 -5.414 22.73 C-5.473 22.026 -5.533 21.321 -5.594 20.595 C-6.353 11.213 -5.218 7.828 0 0 Z " fill="#BA9D72" transform="translate(217,254)"/>
<path d="M0 0 C0.35 6.41 -0.962 12.157 -2.438 18.375 C-2.668 19.384 -2.898 20.394 -3.135 21.434 C-4.859 28.859 -4.859 28.859 -6 30 C-16.554 31.16 -27.254 31.252 -37.86 31.503 C-40.365 31.562 -42.87 31.627 -45.375 31.693 C-55.919 31.96 -66.453 32.054 -77 32 C-77.838 27.897 -78.67 23.792 -79.5 19.688 C-79.738 18.52 -79.977 17.353 -80.223 16.15 C-80.448 15.032 -80.674 13.914 -80.906 12.762 C-81.116 11.73 -81.325 10.698 -81.541 9.635 C-82 7 -82 7 -82 4 C-74.025 2.671 -66.058 2.912 -58 3 C-57.67 3.99 -57.34 4.98 -57 6 C-52.125 3.125 -52.125 3.125 -51 2 C-49.586 1.849 -48.164 1.762 -46.743 1.703 C-45.838 1.663 -44.934 1.623 -44.002 1.582 C-43.016 1.543 -42.031 1.505 -41.016 1.465 C-40.008 1.422 -39 1.379 -37.962 1.335 C-34.725 1.198 -31.487 1.068 -28.25 0.938 C-26.081 0.846 -23.911 0.754 -21.742 0.662 C-19.667 0.575 -17.591 0.489 -15.516 0.402 C-14.538 0.362 -13.561 0.321 -12.554 0.279 C-11.637 0.242 -10.72 0.206 -9.774 0.168 C-8.971 0.135 -8.168 0.103 -7.341 0.069 C-4.893 -0.003 -2.449 -0.012 0 0 Z " fill="#967E5D" transform="translate(383,233)"/>
<path d="M0 0 C5.168 1.56 9.854 3.756 14.68 6.133 C15.492 6.53 16.305 6.926 17.143 7.335 C19.722 8.595 22.298 9.86 24.875 11.125 C26.63 11.983 28.385 12.841 30.141 13.699 C34.429 15.796 38.715 17.897 43 20 C43 23.376 42.268 24.873 40.797 27.883 C40.317 28.873 39.837 29.862 39.343 30.882 C38.817 31.952 38.292 33.022 37.75 34.125 C36.644 36.401 35.539 38.677 34.434 40.953 C33.864 42.122 33.294 43.29 32.707 44.494 C30.054 49.944 27.433 55.409 24.812 60.875 C24.317 61.907 23.821 62.939 23.31 64.002 C20.985 68.842 18.671 73.687 16.387 78.547 C15.982 79.408 15.576 80.269 15.159 81.157 C14.417 82.737 13.677 84.319 12.941 85.902 C10.828 90.404 8.521 94.712 6 99 C5.67 99 5.34 99 5 99 C3.513 78.953 2.424 58.886 1.375 38.812 C1.341 38.169 1.341 38.169 1.168 34.912 C0.971 31.177 0.778 27.442 0.586 23.707 C0.527 22.59 0.467 21.473 0.406 20.323 C0.064 13.542 -0.071 6.789 0 0 Z " fill="#907959" transform="translate(332,331)"/>
<path d="M0 0 C1.785 0.098 1.785 0.098 4 1 C5.347 3.148 6.394 5.145 7.438 7.438 C8.136 8.899 8.835 10.36 9.535 11.82 C9.922 12.638 10.309 13.455 10.708 14.298 C13.197 19.502 15.793 24.654 18.375 29.812 C18.935 30.933 19.494 32.054 20.071 33.208 C23.401 39.861 26.781 46.482 30.25 53.062 C30.447 53.439 30.447 53.439 31.441 55.346 C33.454 59.18 35.541 62.944 37.758 66.664 C38.197 67.425 38.636 68.185 39.089 68.969 C39.92 70.402 40.776 71.821 41.661 73.221 C43.275 76.046 44.298 77.846 43.461 81.088 C41.559 85.059 39.022 88.588 36.25 92 C35.636 92.763 35.023 93.526 34.391 94.312 C33.932 94.869 33.473 95.426 33 96 C29.119 92.458 26.649 88.959 24.438 84.25 C24.109 83.574 23.781 82.898 23.443 82.201 C22.285 79.806 21.142 77.403 20 75 C19.033 72.984 18.066 70.968 17.098 68.953 C15.54 65.709 13.983 62.464 12.43 59.217 C9.61 53.325 6.755 47.456 3.812 41.625 C2.883 39.766 1.955 37.906 1.027 36.045 C0.276 34.55 -0.481 33.058 -1.242 31.568 C-2.553 28.991 -3.841 26.403 -5.125 23.812 C-5.54 23.01 -5.956 22.207 -6.384 21.379 C-9.144 15.738 -9.144 15.738 -8.469 12.281 C-6.813 9.71 -5.162 7.17 -3.375 4.688 C-2.743 3.804 -2.112 2.921 -1.461 2.012 C-0.979 1.348 -0.497 0.684 0 0 Z " fill="#1C43AC" transform="translate(384,27)"/>
<path d="M0 0 C5.318 1.408 7.734 4.876 11 9 C6.996 15.124 2.809 21.071 -1.562 26.938 C-6.25 33.262 -10.903 39.609 -15.5 46 C-20.02 52.282 -24.587 58.527 -29.188 64.75 C-42.602 82.903 -42.602 82.903 -48 91 C-56.783 82.433 -56.783 82.433 -58 80 C-56.866 76.477 -55.266 73.728 -53.059 70.777 C-52.48 69.998 -51.901 69.218 -51.304 68.415 C-50.688 67.598 -50.072 66.78 -49.438 65.938 C-48.803 65.087 -48.169 64.236 -47.516 63.36 C-45.683 60.903 -43.842 58.451 -42 56 C-41.165 54.883 -40.33 53.766 -39.496 52.648 C-37.337 49.761 -35.169 46.88 -33 44 C-26.994 36.022 -21.005 28.037 -15.152 19.945 C-12.318 16.067 -9.443 12.219 -6.562 8.375 C-6.029 7.663 -5.496 6.951 -4.947 6.217 C-4.45 5.555 -3.953 4.893 -3.441 4.211 C-2.995 3.616 -2.548 3.021 -2.088 2.408 C-1 1 -1 1 0 0 Z " fill="#CA2222" transform="translate(130,58)"/>
<path d="M0 0 C0.66 0 1.32 0 2 0 C2.339 1.728 2.671 3.458 3 5.188 C3.186 6.15 3.371 7.113 3.562 8.105 C3.969 10.793 4.079 13.288 4 16 C-1.585 18.228 -6.995 19.813 -12.879 21.016 C-13.298 21.104 -13.298 21.104 -15.418 21.551 C-18.132 22.123 -20.847 22.687 -23.562 23.25 C-27.339 24.042 -31.115 24.839 -34.891 25.637 C-35.831 25.835 -36.772 26.033 -37.741 26.237 C-43.667 27.491 -49.581 28.79 -55.484 30.145 C-56.204 30.309 -56.924 30.474 -57.665 30.644 C-61.001 31.411 -64.336 32.185 -67.668 32.968 C-68.252 33.103 -68.252 33.103 -71.207 33.785 C-72.212 34.021 -73.217 34.257 -74.253 34.5 C-76.905 34.983 -79.312 35.095 -82 35 C-84.578 30.515 -84.601 26.052 -85 21 C-72.303 17.312 -59.555 14.248 -46.625 11.5 C-43.179 10.765 -39.734 10.025 -36.289 9.281 C-35.447 9.1 -34.604 8.919 -33.736 8.732 C-26.64 7.187 -19.604 5.431 -12.589 3.549 C-8.28 2.426 -4.498 1.744 0 2 C0 1.34 0 0.68 0 0 Z " fill="#D9B404" transform="translate(281,137)"/>
<path d="M0 0 C11.375 -0.137 22.69 0.297 34.05 0.81 C36.034 0.898 38.018 0.985 40.002 1.071 C45.351 1.306 50.7 1.545 56.049 1.784 C61.666 2.035 67.284 2.283 72.902 2.532 C82.329 2.949 91.756 3.369 101.183 3.79 C112.062 4.277 122.941 4.759 133.82 5.239 C144.316 5.702 154.813 6.168 165.309 6.635 C169.762 6.834 174.216 7.031 178.67 7.228 C183.918 7.459 189.165 7.693 194.412 7.929 C196.332 8.015 198.251 8.1 200.17 8.184 C218.774 9.001 218.774 9.001 228 10 C228 11.32 228 12.64 228 14 C216.626 14.092 205.316 13.844 193.957 13.281 C192.329 13.204 190.702 13.127 189.075 13.05 C185.606 12.885 182.136 12.718 178.667 12.549 C173.146 12.28 167.625 12.017 162.104 11.754 C152.347 11.29 142.59 10.82 132.834 10.35 C118.21 9.645 103.586 8.943 88.961 8.246 C83.508 7.986 78.056 7.724 72.603 7.459 C68.354 7.254 64.104 7.05 59.855 6.848 C59.045 6.809 58.236 6.771 57.401 6.731 C44.869 6.138 32.337 5.673 19.795 5.349 C13.471 5.174 7.275 4.811 1 4 C0.67 2.68 0.34 1.36 0 0 Z " fill="#B2966D" transform="translate(88,367)"/>
<path d="M0 0 C0.99 0.33 1.98 0.66 3 1 C2.303 2.36 1.592 3.713 0.875 5.062 C0.481 5.817 0.086 6.571 -0.32 7.348 C-2.116 10.183 -4.155 12.556 -6.363 15.074 C-9.266 18.489 -11.864 22.128 -14.5 25.75 C-15.734 27.435 -16.969 29.12 -18.203 30.805 C-18.83 31.663 -19.457 32.521 -20.104 33.405 C-27.754 43.873 -35.427 54.311 -43.371 64.559 C-47.91 70.46 -52.276 76.492 -56.684 82.492 C-59.995 86.999 -63.338 91.479 -66.703 95.945 C-68.512 98.352 -70.313 100.764 -72.109 103.18 C-72.65 103.905 -73.191 104.631 -73.748 105.378 C-74.81 106.804 -75.87 108.231 -76.928 109.659 C-77.413 110.309 -77.899 110.959 -78.398 111.629 C-78.828 112.207 -79.258 112.785 -79.701 113.381 C-81.048 115.059 -82.385 116.576 -84 118 C-84.66 118 -85.32 118 -86 118 C-84.565 113.803 -82.506 110.834 -79.75 107.375 C-75.498 101.97 -71.376 96.485 -67.312 90.938 C-62.414 84.262 -57.477 77.617 -52.5 71 C-47.631 64.525 -42.796 58.028 -38 51.5 C-33.204 44.972 -28.368 38.475 -23.5 32 C-18.365 25.169 -13.259 18.317 -8.188 11.438 C-7.595 10.634 -7.002 9.83 -6.391 9.002 C-5.843 8.258 -5.295 7.513 -4.73 6.746 C-4.49 6.42 -4.49 6.42 -3.274 4.767 C-2.147 3.204 -1.069 1.604 0 0 Z " fill="#D1D1DA" transform="translate(413,121)"/>
<path d="M0 0 C1.785 0.098 1.785 0.098 4 1 C5.347 3.148 6.394 5.145 7.438 7.438 C8.136 8.899 8.835 10.36 9.535 11.82 C9.922 12.638 10.309 13.455 10.708 14.298 C13.197 19.502 15.793 24.654 18.375 29.812 C18.935 30.933 19.494 32.054 20.071 33.208 C23.401 39.86 26.778 46.483 30.25 53.062 C30.448 53.437 30.448 53.437 31.448 55.335 C33.487 59.187 35.555 63.02 37.652 66.84 C38.078 67.623 38.504 68.406 38.942 69.213 C39.752 70.7 40.57 72.183 41.397 73.66 C42.342 75.401 43.181 77.197 44 79 C43.835 79.495 43.835 79.495 43 82 C39.232 80.544 38.052 78.866 36.25 75.305 C35.734 74.298 35.217 73.291 34.685 72.253 C34.129 71.139 33.573 70.024 33 68.875 C32.408 67.712 31.817 66.55 31.207 65.352 C29.119 61.244 27.059 57.122 25 53 C24.157 51.316 23.315 49.633 22.472 47.949 C15.23 33.475 15.23 33.475 11.842 26.648 C11.426 25.811 11.01 24.975 10.581 24.113 C9.805 22.552 9.031 20.991 8.258 19.428 C5.985 14.861 3.558 10.435 0.94 6.054 C0 4 0 4 0 0 Z " fill="#C2C3CF" transform="translate(384,27)"/>
<path d="M0 0 C-0.33 1.32 -0.66 2.64 -1 4 C-1.735 4.165 -2.47 4.33 -3.227 4.5 C-6.839 5.311 -10.451 6.124 -14.062 6.938 C-14.737 7.089 -15.412 7.241 -16.107 7.398 C-24.863 9.37 -33.613 11.368 -42.355 13.398 C-43.221 13.599 -44.087 13.8 -44.978 14.007 C-49.231 14.994 -53.483 15.984 -57.735 16.978 C-65.792 18.855 -73.832 20.656 -82 22 C-81.67 20.68 -81.34 19.36 -81 18 C-66.897 14.441 -52.768 10.994 -38.623 7.606 C-35.278 6.804 -31.933 6.001 -28.588 5.197 C-26.43 4.68 -24.272 4.162 -22.113 3.645 C-21.129 3.408 -20.144 3.172 -19.13 2.928 C-17.287 2.487 -15.444 2.049 -13.6 1.614 C-11.858 1.203 -10.118 0.783 -8.38 0.356 C-7.572 0.164 -6.763 -0.029 -5.93 -0.228 C-5.575 -0.314 -5.575 -0.314 -3.773 -0.753 C-2 -1 -2 -1 0 0 Z " fill="#DCDBCA" transform="translate(282,135)"/>
<path d="M0 0 C0.66 0 1.32 0 2 0 C0.284 3.825 -2.116 7.12 -4.562 10.5 C-5.006 11.117 -5.449 11.733 -5.906 12.368 C-9.495 17.344 -13.167 22.256 -16.863 27.152 C-18.874 29.833 -20.85 32.534 -22.812 35.25 C-26.529 40.382 -30.328 45.448 -34.138 50.51 C-38.899 56.844 -43.597 63.225 -48.28 69.617 C-51.113 73.476 -53.969 77.293 -57 81 C-57 76.362 -55.628 74.548 -53 71 C-52.522 70.339 -52.044 69.678 -51.551 68.997 C-49.879 66.697 -48.192 64.41 -46.5 62.125 C-45.883 61.29 -45.267 60.455 -44.632 59.595 C-40.226 53.635 -35.786 47.702 -31.33 41.78 C-28.021 37.377 -24.75 32.947 -21.5 28.5 C-17.553 23.1 -13.573 17.727 -9.562 12.375 C-9.066 11.712 -8.57 11.049 -8.059 10.365 C-6.712 8.572 -5.357 6.785 -4 5 C-3.267 4.023 -2.533 3.046 -1.777 2.039 C-1.191 1.366 -0.604 0.693 0 0 Z " fill="#F6E4E4" transform="translate(130,58)"/>
<path d="M0 0 C-1.367 4.709 -3.247 6.202 -7.438 8.625 C-7.992 8.95 -8.547 9.275 -9.119 9.609 C-10.365 10.337 -11.616 11.058 -12.87 11.774 C-15.254 13.146 -17.617 14.552 -19.98 15.961 C-21.695 16.975 -23.41 17.988 -25.125 19 C-25.954 19.493 -26.784 19.986 -27.638 20.495 C-28.42 20.95 -29.202 21.406 -30.008 21.875 C-30.705 22.285 -31.403 22.695 -32.122 23.117 C-34 24 -34 24 -37 24 C-37.33 22.68 -37.66 21.36 -38 20 C-32.684 16.638 -27.35 13.308 -22 10 C-21.226 9.52 -20.452 9.04 -19.654 8.545 C-17.381 7.142 -15.099 5.756 -12.812 4.375 C-12.107 3.938 -11.401 3.5 -10.674 3.049 C-6.995 0.85 -4.434 -0.603 0 0 Z " fill="#B2976D" transform="translate(115,325)"/>
<path d="M0 0 C0.165 0.66 0.165 0.66 1 4 C-3.763 5.718 -8.475 6.79 -13.434 7.727 C-14.23 7.879 -15.026 8.032 -15.846 8.189 C-17.522 8.509 -19.199 8.826 -20.876 9.142 C-23.427 9.623 -25.976 10.116 -28.525 10.609 C-30.161 10.92 -31.797 11.23 -33.434 11.539 C-34.188 11.686 -34.942 11.833 -35.72 11.984 C-40.227 12.82 -44.415 13.141 -49 13 C-48.67 11.68 -48.34 10.36 -48 9 C-46.962 8.798 -45.924 8.597 -44.854 8.389 C-40.959 7.633 -37.064 6.876 -33.168 6.119 C-31.491 5.793 -29.813 5.467 -28.135 5.142 C-25.707 4.67 -23.279 4.198 -20.852 3.727 C-20.461 3.651 -20.461 3.651 -18.482 3.267 C-13.558 2.309 -8.64 1.329 -3.728 0.31 C-2 0 -2 0 0 0 Z " fill="#B08D11" transform="translate(273,197)"/>
<path d="M0 0 C0.165 0.66 0.165 0.66 1 4 C-5.316 5.145 -11.633 6.284 -17.951 7.418 C-20.1 7.804 -22.249 8.192 -24.397 8.582 C-27.486 9.142 -30.577 9.697 -33.668 10.25 C-34.147 10.337 -34.147 10.337 -36.573 10.78 C-37.473 10.94 -38.374 11.101 -39.302 11.266 C-40.09 11.408 -40.878 11.55 -41.69 11.696 C-44.151 12.02 -46.521 12.052 -49 12 C-49 10.68 -49 9.36 -49 8 C-21.78 3.099 -21.78 3.099 -10.438 1.188 C-9.714 1.064 -8.99 0.94 -8.245 0.813 C-5.452 0.348 -2.837 0 0 0 Z " fill="#B08C0F" transform="translate(278,221)"/>
<path d="M0 0 C0.66 0.33 1.32 0.66 2 1 C1.381 5.079 -0.85 8.093 -3.121 11.426 C-3.54 12.05 -3.959 12.675 -4.39 13.319 C-5.734 15.32 -7.085 17.316 -8.438 19.312 C-9.312 20.612 -10.187 21.912 -11.061 23.213 C-12.81 25.815 -14.562 28.415 -16.316 31.014 C-20.571 37.325 -24.784 43.663 -29 50 C-29.99 49.67 -30.98 49.34 -32 49 C-30.38 44.224 -27.751 40.384 -24.938 36.25 C-24.426 35.491 -23.914 34.732 -23.387 33.949 C-21.597 31.296 -19.798 28.648 -18 26 C-16.877 24.341 -15.754 22.682 -14.632 21.023 C-12.694 18.16 -10.754 15.299 -8.812 12.438 C-8.431 11.875 -8.05 11.313 -7.657 10.734 C-6.571 9.133 -5.483 7.533 -4.395 5.934 C-4.079 5.47 -4.079 5.47 -2.484 3.123 C-1 1 -1 1 0 0 Z " fill="#921E1E" transform="translate(180,135)"/>
<path d="M0 0 C0.619 0.01 0.619 0.01 3.75 0.062 C3.915 0.723 3.915 0.723 4.75 4.062 C0.004 4.762 -4.742 5.455 -9.49 6.144 C-11.098 6.378 -12.707 6.614 -14.316 6.851 C-23.954 8.272 -33.517 9.493 -43.25 10.062 C-43.58 8.743 -43.91 7.423 -44.25 6.062 C-43.18 5.916 -42.111 5.77 -41.009 5.619 C-37.035 5.076 -33.062 4.529 -29.089 3.981 C-27.37 3.745 -25.651 3.509 -23.933 3.274 C-21.46 2.936 -18.988 2.595 -16.516 2.254 C-16.132 2.202 -16.132 2.202 -14.192 1.938 C-8.697 1.175 -8.697 1.175 -6.149 0.533 C-4.033 0.009 -2.176 -0.036 0 0 Z " fill="#B18F15" transform="translate(283.25,266.9375)"/>
<path d="M0 0 C0.66 0 1.32 0 2 0 C1.52 5.221 -1.219 8.83 -4.062 13.062 C-4.312 13.441 -4.312 13.441 -5.576 15.355 C-7.044 17.575 -8.521 19.788 -10 22 C-10.7 23.062 -11.4 24.124 -12.121 25.219 C-17.631 33.558 -23.322 41.775 -29 50 C-29.99 49.01 -30.98 48.02 -32 47 C-27.926 40.948 -23.851 34.898 -19.775 28.848 C-18.388 26.79 -17.002 24.732 -15.616 22.673 C-13.624 19.714 -11.631 16.755 -9.637 13.797 C-9.018 12.877 -8.399 11.957 -7.761 11.009 C-7.181 10.149 -6.601 9.288 -6.003 8.401 C-5.494 7.646 -4.986 6.891 -4.462 6.113 C-3.979 5.416 -3.497 4.719 -3 4 C-2.484 3.249 -1.969 2.498 -1.437 1.725 C-0.963 1.156 -0.489 0.586 0 0 Z " fill="#921E1E" transform="translate(194,150)"/>
<path d="M0 0 C0.99 0.33 1.98 0.66 3 1 C1.42 5.669 -1.123 9.325 -3.938 13.312 C-4.932 14.741 -5.927 16.169 -6.922 17.598 C-7.432 18.326 -7.942 19.055 -8.467 19.805 C-10.891 23.275 -13.29 26.762 -15.688 30.25 C-15.914 30.579 -15.914 30.579 -17.06 32.243 C-21.1 38.123 -25.066 44.049 -29 50 C-29.99 49.34 -30.98 48.68 -32 48 C-26.832 37.088 -18.708 27.224 -11.812 17.362 C-7.802 11.621 -3.854 5.847 0 0 Z " fill="#911C1C" transform="translate(165,121)"/>
<path d="M0 0 C0.99 0.33 1.98 0.66 3 1 C-0.234 7.126 -3.811 12.755 -7.938 18.312 C-9.077 19.867 -10.215 21.424 -11.352 22.98 C-11.942 23.789 -12.533 24.598 -13.142 25.431 C-16.417 29.959 -19.614 34.542 -22.812 39.125 C-23.429 40.008 -24.046 40.892 -24.681 41.802 C-26.122 43.867 -27.562 45.933 -29 48 C-29.99 47.67 -30.98 47.34 -32 47 C-30.379 41.927 -27.326 38.093 -24.188 33.875 C-18.735 26.449 -13.467 18.92 -8.315 11.283 C-5.68 7.392 -3.01 3.616 0 0 Z " fill="#911E1E" transform="translate(151,107)"/>
<path d="M0 0 C0 1.32 0 2.64 0 4 C-11.361 6.089 -22.753 7.919 -34.175 9.642 C-34.711 9.723 -34.711 9.723 -37.422 10.133 C-38.377 10.276 -39.332 10.419 -40.315 10.567 C-42.892 10.983 -45.444 11.47 -48 12 C-48.562 10.062 -48.562 10.062 -49 8 C-47.482 6.482 -45.909 6.57 -43.803 6.244 C-42.912 6.104 -42.021 5.964 -41.103 5.819 C-40.618 5.745 -40.618 5.745 -38.164 5.371 C-37.174 5.217 -36.183 5.063 -35.163 4.905 C-33.064 4.579 -30.964 4.256 -28.863 3.934 C-25.645 3.441 -22.428 2.941 -19.211 2.439 C-17.175 2.125 -15.138 1.81 -13.102 1.496 C-12.619 1.421 -12.619 1.421 -10.175 1.042 C-9.278 0.905 -8.38 0.768 -7.456 0.627 C-6.666 0.505 -5.876 0.384 -5.062 0.259 C-3 0 -3 0 0 0 Z " fill="#AF8C0F" transform="translate(283,244)"/>
<path d="M0 0 C0.66 0 1.32 0 2 0 C2.866 1.927 3.732 3.854 4.598 5.781 C4.868 6.382 5.138 6.983 5.416 7.603 C6.899 10.904 8.379 14.207 9.854 17.511 C10.447 18.84 11.04 20.168 11.633 21.496 C11.779 21.823 11.779 21.823 12.518 23.48 C14.146 27.117 15.801 30.74 17.492 34.348 C17.83 35.08 18.167 35.812 18.515 36.566 C19.374 38.425 20.247 40.277 21.121 42.129 C22 45 22 45 21.16 47.402 C20.777 47.93 20.394 48.457 20 49 C16.912 47.456 16.463 44.458 15.312 41.375 C13.217 35.935 10.957 30.632 8.438 25.375 C4.805 17.763 1.669 10.007 -1 2 C-0.67 1.34 -0.34 0.68 0 0 Z " fill="#1A2C82" transform="translate(359,90)"/>
<path d="M0 0 C0.66 0 1.32 0 2 0 C4.6 6.31 7.18 12.628 9.745 18.951 C10.621 21.102 11.5 23.25 12.385 25.397 C13.656 28.482 14.909 31.574 16.16 34.668 C16.559 35.626 16.958 36.585 17.369 37.573 C17.729 38.473 18.09 39.374 18.461 40.302 C18.783 41.09 19.105 41.878 19.437 42.69 C20.107 45.441 19.732 47.293 19 50 C16.426 48.713 16.294 47.746 15.228 45.11 C14.891 44.286 14.554 43.461 14.207 42.611 C13.849 41.714 13.49 40.816 13.121 39.891 C12.935 39.431 12.935 39.431 11.993 37.106 C11.206 35.157 10.422 33.206 9.641 31.255 C8.447 28.273 7.241 25.297 6.033 22.32 C5.27 20.427 4.508 18.534 3.746 16.641 C3.566 16.196 3.566 16.196 2.654 13.944 C2.32 13.107 1.986 12.27 1.642 11.407 C1.349 10.675 1.055 9.943 0.752 9.189 C-0.071 6.793 -0.642 4.509 -1 2 C-0.67 1.34 -0.34 0.68 0 0 Z " fill="#1C2E83" transform="translate(346,109)"/>
<path d="M0 0 C2.034 2.034 2.594 3.158 3.588 5.788 C3.885 6.566 4.182 7.344 4.488 8.146 C4.803 8.988 5.117 9.831 5.441 10.699 C5.769 11.568 6.097 12.436 6.435 13.331 C7.127 15.172 7.817 17.013 8.505 18.856 C9.553 21.662 10.615 24.463 11.678 27.264 C12.35 29.054 13.021 30.845 13.691 32.637 C14.008 33.469 14.325 34.302 14.651 35.16 C16.37 39.804 17.504 44.068 18 49 C17.01 49 16.02 49 15 49 C12.737 42.951 10.477 36.9 8.219 30.848 C7.451 28.79 6.681 26.731 5.911 24.673 C4.805 21.715 3.701 18.756 2.598 15.797 C2.253 14.877 1.908 13.957 1.553 13.009 C1.232 12.149 0.912 11.288 0.582 10.401 C0.3 9.646 0.018 8.891 -0.272 8.113 C-1.711 3.934 -1.711 3.934 -2 2 C-1.34 1.34 -0.68 0.68 0 0 Z " fill="#1B2D83" transform="translate(334,128)"/>
<path d="M0 0 C2.586 1.293 2.631 2.191 3.588 4.874 C3.885 5.695 4.182 6.517 4.488 7.363 C4.803 8.258 5.117 9.152 5.441 10.074 C5.769 10.991 6.097 11.907 6.435 12.852 C7.128 14.797 7.818 16.743 8.505 18.69 C9.553 21.661 10.614 24.626 11.678 27.592 C12.35 29.481 13.021 31.371 13.691 33.262 C14.008 34.146 14.325 35.031 14.651 35.942 C16.176 40.287 17.436 44.404 18 49 C17.505 49.165 17.505 49.165 15 50 C14.764 49.317 14.528 48.634 14.285 47.931 C13.575 45.876 12.864 43.822 12.154 41.768 C11.339 39.411 10.526 37.054 9.713 34.697 C7.783 29.104 5.838 23.519 3.809 17.961 C3.645 17.508 3.645 17.508 2.815 15.214 C2.2 13.521 1.577 11.832 0.945 10.146 C0.672 9.389 0.399 8.632 0.117 7.852 C-0.124 7.2 -0.365 6.549 -0.614 5.877 C-1.076 3.628 -0.701 2.163 0 0 Z " fill="#1B2E83" transform="translate(321,146)"/>
<path d="M0 0 C0.99 0.33 1.98 0.66 3 1 C-0.929 5.63 -5.597 8.261 -10.859 11.223 C-14.56 13.317 -18.153 15.562 -21.746 17.836 C-24.17 19.088 -26.314 19.593 -29 20 C-29.33 20.99 -29.66 21.98 -30 23 C-31.32 23 -32.64 23 -34 23 C-34.33 23.99 -34.66 24.98 -35 26 C-35.66 26 -36.32 26 -37 26 C-37 24.68 -37 23.36 -37 22 C-36.27 21.582 -35.54 21.165 -34.788 20.734 C-32.023 19.15 -29.259 17.564 -26.496 15.976 C-25.311 15.295 -24.125 14.616 -22.938 13.937 C-15.869 9.891 -8.944 5.753 -2.218 1.155 C-1.486 0.774 -0.754 0.393 0 0 Z " fill="#846F51" transform="translate(181,283)"/>
<path d="M0 0 C-1.602 1.928 -2.473 2.912 -4.989 3.333 C-5.746 3.314 -6.504 3.295 -7.284 3.275 C-8.146 3.263 -9.009 3.251 -9.897 3.238 C-10.831 3.211 -11.765 3.184 -12.727 3.156 C-14.729 3.127 -16.732 3.099 -18.735 3.074 C-19.771 3.059 -20.806 3.043 -21.873 3.027 C-26.842 2.984 -31.806 3.096 -36.773 3.219 C-37.731 3.241 -38.69 3.264 -39.677 3.287 C-42.576 3.356 -45.476 3.428 -48.375 3.5 C-50.395 3.548 -52.414 3.597 -54.434 3.645 C-59.289 3.76 -64.145 3.879 -69 4 C-69 3.34 -69 2.68 -69 2 C-57.968 1.219 -46.955 0.758 -35.899 0.497 C-33.37 0.437 -30.841 0.372 -28.312 0.307 C-18.872 0.069 -9.444 -0.061 0 0 Z " fill="#AF936B" transform="translate(376,263)"/>
<path d="M0 0 C-3.176 1.758 -6.224 2.651 -9.754 3.473 C-10.305 3.603 -10.305 3.603 -13.092 4.26 C-14.237 4.525 -15.382 4.79 -16.562 5.062 C-18.835 5.594 -21.107 6.126 -23.379 6.66 C-24.385 6.894 -25.391 7.127 -26.428 7.367 C-29 8 -29 8 -32 9 C-32.33 9.66 -32.66 10.32 -33 11 C-35.462 11.805 -37.868 12.496 -40.375 13.125 C-41.061 13.307 -41.747 13.489 -42.453 13.676 C-45.381 14.433 -47.963 15 -51 15 C-50.67 13.68 -50.34 12.36 -50 11 C-43.337 9.318 -36.67 7.654 -30 6 C-28.904 5.728 -27.809 5.455 -26.68 5.174 C-23.309 4.339 -19.936 3.512 -16.562 2.688 C-16.027 2.554 -16.027 2.554 -13.317 1.88 C-12.306 1.635 -11.295 1.39 -10.254 1.137 C-9.36 0.917 -8.466 0.698 -7.545 0.471 C-4.97 -0.006 -2.612 -0.085 0 0 Z " fill="#D1D1C3" transform="translate(251,142)"/>
<path d="M0 0 C0.66 0.33 1.32 0.66 2 1 C-0.227 5.461 -2.63 7.368 -6.938 9.812 C-7.978 10.417 -9.018 11.022 -10.09 11.645 C-13 13 -13 13 -17 13 C-16.67 13.66 -16.34 14.32 -16 15 C-17.32 15.33 -18.64 15.66 -20 16 C-20 14.68 -20 13.36 -20 12 C-18.196 10.428 -18.196 10.428 -15.695 8.949 C-14.802 8.416 -13.909 7.883 -12.988 7.334 C-12.043 6.791 -11.099 6.247 -10.125 5.688 C-9.188 5.125 -8.251 4.562 -7.285 3.982 C-2.146 0.962 -2.146 0.962 0 0 Z " fill="#846F51" transform="translate(142,306)"/>
<path d="M0 0 C2.589 2.589 2.374 4.027 2.625 7.625 C2.7 8.628 2.775 9.631 2.852 10.664 C2.876 11.049 2.876 11.049 3 13 C0.03 13 -2.94 13 -6 13 C-5.127 9.506 -4.195 7.314 -2.438 4.25 C-1.982 3.451 -1.527 2.652 -1.059 1.828 C-0.884 1.526 -0.884 1.526 0 0 Z " fill="#998261" transform="translate(217,254)"/>
<path d="M0 0 C-0.33 0.66 -0.66 1.32 -1 2 C-3.133 2.686 -3.133 2.686 -5.91 3.289 C-6.9 3.508 -7.889 3.727 -8.908 3.953 C-9.949 4.175 -10.99 4.397 -12.062 4.625 C-13.107 4.854 -14.152 5.084 -15.229 5.32 C-17.817 5.888 -20.408 6.447 -23 7 C-22.67 6.01 -22.34 5.02 -22 4 C-20.19 3.185 -20.19 3.185 -17.852 2.578 C-17.011 2.358 -16.171 2.137 -15.305 1.91 C-14.42 1.692 -13.536 1.474 -12.625 1.25 C-11.748 1.017 -10.872 0.783 -9.969 0.543 C-3.402 -1.134 -3.402 -1.134 0 0 Z " fill="#EAEAD9" transform="translate(241,146)"/>
<path d="M0 0 C-2.185 2.406 -4.259 3.795 -7.188 5.188 C-7.903 5.532 -8.618 5.876 -9.355 6.23 C-9.898 6.484 -10.441 6.738 -11 7 C-11.33 6.01 -11.66 5.02 -12 4 C-10.57 3.134 -9.131 2.282 -7.688 1.438 C-7.287 1.2 -7.287 1.2 -5.262 -0.004 C-3 -1 -3 -1 0 0 Z " fill="#877253" transform="translate(197,277)"/>
<path d="M0 0 C7.667 5.966 7.667 5.966 9 11 C1.333 5.034 1.333 5.034 0 0 Z " fill="#991717" transform="translate(74,138)"/>
<path d="M0 0 C-1.186 3.375 -2.276 5.647 -5 8 C-5.66 6.68 -6.32 5.36 -7 4 C-2.25 0 -2.25 0 0 0 Z " fill="#932525" transform="translate(140,163)"/>
<path d="M0 0 C-0.99 0.33 -1.98 0.66 -3 1 C-3.495 1.516 -3.99 2.031 -4.5 2.562 C-6 4 -6 4 -9 4 C-8.67 2.68 -8.34 1.36 -8 0 C-4.947 -0.981 -3.053 -0.981 0 0 Z " fill="#D9D8C5" transform="translate(209,153)"/>
<path d="M0 0 C0.402 0.01 0.402 0.01 2.438 0.062 C1.447 0.722 0.458 1.382 -0.562 2.062 C-0.232 2.722 0.097 3.382 0.438 4.062 C-0.222 4.062 -0.882 4.062 -1.562 4.062 C-1.893 4.722 -2.222 5.382 -2.562 6.062 C-3.553 6.062 -4.542 6.062 -5.562 6.062 C-3.261 0.08 -3.261 0.08 0 0 Z " fill="#E4D8CA" transform="translate(197.5625,153.9375)"/>
<path d="M0 0 C0.33 0.99 0.66 1.98 1 3 C-0.938 6.188 -0.938 6.188 -3 9 C-3.66 8.67 -4.32 8.34 -5 8 C-3.814 4.625 -2.724 2.353 0 0 Z " fill="#EDDDDD" transform="translate(77,130)"/>
<path d="M0 0 C0.99 0.33 1.98 0.66 3 1 C2 4 2 4 -1.062 5.688 C-2.032 6.121 -3.001 6.554 -4 7 C-2.926 4.085 -2.222 2.222 0 0 Z " fill="#952525" transform="translate(151,107)"/>
<path d="M0 0 C-0.66 1.65 -1.32 3.3 -2 5 C-3.32 5 -4.64 5 -6 5 C-6 4.34 -6 3.68 -6 3 C-2.538 0 -2.538 0 0 0 Z " fill="#8D1919" transform="translate(125,149)"/>
<path d="M0 0 C0 0.66 0 1.32 0 2 C-2.64 2.33 -5.28 2.66 -8 3 C-8 2.34 -8 1.68 -8 1 C-5.108 0.174 -3.113 0 0 0 Z " fill="#EDEDDD" transform="translate(261,141)"/>
</svg>
