<?xml version="1.0" encoding="UTF-8"?>
<!-- Generator: visioncortex VTracer 0.6.12 -->
<svg version="1.1" xmlns="http://www.w3.org/2000/svg" width="512" height="512">
<path d="M0 0 C8.818 7.13 15.82 15.713 22.914 24.512 C24.712 26.656 26.551 28.622 28.562 30.562 C29.367 31.367 30.171 32.171 31 33 C31 33.66 31 34.32 31 35 C31.66 35 32.32 35 33 35 C34.305 36.258 34.305 36.258 35.875 38.125 C36.499 38.857 37.123 39.589 37.766 40.344 C38.503 41.22 39.24 42.097 40 43 C41.87 45.212 43.746 47.42 45.625 49.625 C46.127 50.216 46.63 50.807 47.147 51.416 C51.599 56.616 56.243 61.622 60.987 66.557 C65 70.787 65 70.787 65 73 C65.66 73 66.32 73 67 73 C68.508 74.461 68.508 74.461 70.125 76.375 C70.664 77.001 71.203 77.628 71.758 78.273 C73 80 73 80 73 82 C73.66 82 74.32 82 75 82 C76.309 83.471 77.545 85.006 78.75 86.562 C84.755 94.091 91.375 101.017 98 108 C96.55 111.791 94.848 115.387 93 119 C93.917 118.939 94.833 118.879 95.777 118.816 C118.131 117.422 140.604 116.737 163 117 C164.164 120.492 164.332 123.575 164.562 127.25 C164.646 128.534 164.73 129.818 164.816 131.141 C164.989 134.768 165.033 138.369 165 142 C168.3 142 171.6 142 175 142 C174.778 141.265 174.778 141.265 173.652 137.547 C173.08 135.615 172.509 133.682 171.938 131.75 C171.79 131.266 171.79 131.266 171.045 128.816 C170.771 127.882 170.497 126.947 170.215 125.984 C169.958 125.126 169.702 124.267 169.437 123.382 C168.956 120.762 169.153 119.499 170 117 C171.991 114.724 173.994 112.607 176.14 110.487 C176.781 109.843 177.422 109.199 178.082 108.535 C180.202 106.406 182.333 104.289 184.465 102.172 C185.939 100.698 187.412 99.224 188.885 97.75 C191.974 94.662 195.067 91.579 198.164 88.5 C202.142 84.545 206.108 80.579 210.072 76.609 C213.112 73.565 216.158 70.526 219.205 67.488 C220.67 66.027 222.134 64.565 223.596 63.101 C225.636 61.061 227.682 59.027 229.73 56.995 C230.339 56.384 230.947 55.773 231.574 55.144 C235.771 51 235.771 51 238 51 C238.227 50.443 238.454 49.886 238.688 49.312 C240.376 46.338 242.467 44.28 245 42 C245.66 42 246.32 42 247 42 C247 41.34 247 40.68 247 40 C247.66 40 248.32 40 249 40 C249.33 39.01 249.66 38.02 250 37 C250.66 37 251.32 37 252 37 C252.33 36.01 252.66 35.02 253 34 C253.66 34 254.32 34 255 34 C255.238 33.437 255.477 32.873 255.723 32.293 C257.278 29.501 259.172 27.563 261.438 25.312 C262.22 24.525 263.002 23.737 263.809 22.926 C266 21 266 21 269 20 C273.743 30.398 277.99 40.971 281.734 51.766 C284.834 60.619 288.103 69.404 291.409 78.182 C292.396 80.806 293.38 83.432 294.363 86.058 C297.124 93.421 299.892 100.779 302.789 108.09 C302.981 108.577 302.981 108.577 303.952 111.042 C304.625 112.741 305.309 114.436 306.005 116.126 C307.168 119.065 308.002 121.551 307.988 124.73 C306.636 127.836 304.757 129.435 302.188 131.625 C301.315 132.38 300.442 133.136 299.543 133.914 C293.343 139 293.343 139 291 139 C291 139.66 291 140.32 291 141 C289.593 142.248 288.121 143.423 286.625 144.562 C282.978 147.405 279.474 150.316 276.062 153.438 C271.819 157.304 267.437 160.946 262.977 164.559 C259.652 167.285 256.384 170.071 253.125 172.875 C242.206 182.266 231.273 191.65 219.984 200.598 C218.622 201.69 217.303 202.838 216 204 C216 204.66 216 205.32 216 206 C216.541 206.29 217.082 206.58 217.639 206.879 C229.971 213.513 242.163 220.345 254.229 227.454 C255.187 228.018 256.145 228.583 257.133 229.164 C257.977 229.664 258.822 230.163 259.692 230.678 C261.764 231.865 263.852 232.958 266 234 C266.157 251.149 265.746 268.277 265.255 285.417 C265.144 289.332 265.044 293.246 264.947 297.161 C264.869 300.204 264.783 303.247 264.694 306.29 C264.654 307.735 264.616 309.18 264.582 310.626 C264.534 312.63 264.472 314.633 264.411 316.637 C264.38 317.773 264.348 318.909 264.316 320.079 C264.012 322.894 263.457 324.603 262 327 C255.79 325.372 250.645 322.015 245.188 318.75 C235.238 312.866 225.213 307.151 215.112 301.532 C214.122 300.981 213.133 300.431 212.113 299.863 C211.245 299.382 210.376 298.9 209.482 298.404 C206.961 296.978 204.477 295.501 202 294 C202.03 295.12 202.059 296.24 202.09 297.394 C202.085 302.259 201.373 306.902 200.563 311.689 C200.487 312.156 200.487 312.156 200.1 314.52 C199.597 317.585 199.084 320.648 198.57 323.711 C198.216 325.847 197.862 327.983 197.509 330.119 C196.768 334.583 196.023 339.047 195.274 343.509 C194.313 349.238 193.366 354.968 192.423 360.7 C191.696 365.105 190.961 369.509 190.225 373.912 C189.872 376.026 189.522 378.14 189.175 380.254 C188.689 383.2 188.194 386.144 187.696 389.087 C187.553 389.965 187.411 390.843 187.264 391.748 C186.228 397.772 186.228 397.772 184 400 C176.071 400.257 167.706 397.988 159.941 396.594 C158.57 396.35 157.198 396.107 155.826 395.864 C152.162 395.215 148.499 394.561 144.836 393.906 C141.02 393.224 137.203 392.547 133.386 391.869 C128.745 391.045 124.105 390.221 119.464 389.394 C109.877 387.687 100.287 385.991 90.695 384.309 C90.112 384.206 90.112 384.206 87.163 383.688 C78.325 382.137 78.325 382.137 74.048 381.388 C67.695 380.276 61.345 379.151 55 378 C54.22 377.859 53.44 377.719 52.636 377.574 C50.501 377.185 48.37 376.784 46.238 376.379 C45.07 376.159 43.901 375.939 42.697 375.713 C40 375 40 375 38 373 C37.689 370.079 37.487 367.241 37.375 364.312 C37.336 363.522 37.298 362.731 37.258 361.916 C37.043 357.273 36.963 352.647 37 348 C36.415 347.963 35.83 347.925 35.227 347.887 C26.053 347.184 17.053 345.584 8 344 C8.481 335.341 11.18 327.489 13.875 319.316 C14.365 317.81 14.855 316.303 15.343 314.796 C16.624 310.853 17.915 306.915 19.209 302.976 C20.266 299.751 21.315 296.524 22.364 293.296 C23.615 289.448 24.87 285.601 26.125 281.754 C26.364 281.02 26.604 280.286 26.851 279.53 C27.526 277.461 28.204 275.394 28.883 273.326 C29.268 272.15 29.654 270.974 30.051 269.761 C31 267 31 267 32 265 C31.04 265.322 30.081 265.643 29.092 265.975 C9.769 272.448 -9.566 278.867 -29 285 C-29.33 284.505 -29.33 284.505 -31 282 C-29.911 277.939 -27.685 275.032 -25.125 271.75 C-21.394 266.897 -17.82 261.955 -14.312 256.938 C-9.442 249.986 -4.436 243.145 0.625 236.332 C5.689 229.487 10.571 222.521 15.382 215.497 C20.8 207.651 24.705 204.363 33.75 201.25 C34.194 201.092 34.194 201.092 36.441 200.293 C38.624 199.518 40.81 198.755 43 198 C43 196 43 196 41.623 194.428 C40.995 193.823 40.366 193.217 39.719 192.594 C39.38 192.263 39.38 192.263 37.668 190.59 C36.953 189.9 36.237 189.211 35.5 188.5 C34.089 187.14 32.683 185.776 31.281 184.406 C30.653 183.801 30.024 183.196 29.377 182.572 C28 181 28 181 28 179 C27.34 179 26.68 179 26 179 C24.695 177.672 24.695 177.672 23.125 175.75 C19.921 171.97 16.527 168.473 13 165 C9.122 161.171 5.438 157.279 1.906 153.125 C-1.12 149.751 -4.372 146.608 -7.595 143.424 C-10.942 140.102 -14.086 136.682 -17.133 133.082 C-20.081 129.795 -23.259 126.734 -26.446 123.679 C-27.667 122.489 -28.838 121.248 -30 120 C-30 119.34 -30 118.68 -30 118 C-30.66 118 -31.32 118 -32 118 C-33.434 116.538 -33.434 116.538 -35.105 114.512 C-39.577 109.251 -44.498 104.51 -49.479 99.736 C-50.162 99.067 -50.846 98.397 -51.551 97.707 C-52.166 97.114 -52.781 96.521 -53.415 95.909 C-55.274 93.67 -56.231 91.807 -57 89 C-55.649 86.301 -54.302 84.12 -52.562 81.688 C-51.525 80.165 -50.49 78.64 -49.457 77.113 C-48.896 76.292 -48.335 75.47 -47.756 74.624 C-44.629 69.953 -41.704 65.156 -38.75 60.375 C-33.006 51.133 -27.119 41.994 -21.149 32.897 C-17.254 26.952 -13.472 20.96 -9.785 14.883 C-6.658 9.833 -3.331 4.917 0 0 Z M75 148 C74.441 149.021 73.881 150.042 73.305 151.094 C69.38 158.22 65.42 165.318 61.289 172.328 C60.661 173.394 60.034 174.459 59.387 175.557 C58.146 177.657 56.899 179.755 55.648 181.85 C55.073 182.822 54.498 183.795 53.906 184.797 C53.394 185.656 52.881 186.516 52.354 187.401 C50.896 190.2 49.922 192.986 49 196 C52.694 195.09 56.344 194.054 60 193 C60.701 192.812 61.403 192.624 62.125 192.43 C75.354 188.821 75.354 188.821 79.012 184.773 C81.811 178.586 81.113 172.518 80 166 C79.749 164.434 79.499 162.867 79.25 161.301 C78.533 156.861 77.775 152.43 77 148 C76.34 148 75.68 148 75 148 Z " fill="#7B7A77" transform="translate(130,31)"/>
<path d="M0 0 C1.98 0 3.96 0 6 0 C7.309 7.736 8.613 15.472 9.912 23.21 C10.515 26.803 11.119 30.396 11.728 33.988 C12.315 37.456 12.898 40.925 13.478 44.395 C13.808 46.359 14.142 48.322 14.475 50.286 C14.575 50.886 14.575 50.886 15.082 53.925 C15.26 54.979 15.437 56.034 15.62 57.121 C15.972 59.79 16.073 62.312 16 65 C16.825 64.995 17.649 64.99 18.499 64.985 C27.682 64.953 36.846 65.149 46.023 65.438 C47.506 65.483 48.988 65.527 50.47 65.572 C54.32 65.689 58.17 65.808 62.02 65.927 C65.969 66.049 69.918 66.169 73.867 66.289 C81.578 66.524 89.289 66.761 97 67 C96.915 66.204 96.831 65.409 96.743 64.589 C93.682 35.711 93.682 35.711 92.812 22.188 C92.731 20.983 92.649 19.778 92.564 18.537 C92.372 15.692 92.183 12.846 92 10 C94.521 10.142 97.042 10.289 99.562 10.438 C100.267 10.477 100.971 10.516 101.697 10.557 C106.18 10.825 110.563 11.306 115 12 C116.044 14.806 117.06 17.617 118.062 20.438 C118.357 21.221 118.652 22.004 118.955 22.811 C119.229 23.594 119.503 24.377 119.785 25.184 C120.042 25.891 120.298 26.598 120.563 27.326 C121.738 34.514 119.465 42.159 117.969 49.18 C117.773 50.114 117.577 51.049 117.375 52.012 C116.963 53.97 116.55 55.928 116.134 57.886 C115.498 60.886 114.867 63.888 114.238 66.891 C113.836 68.8 113.434 70.708 113.031 72.617 C112.843 73.514 112.654 74.411 112.46 75.335 C112.371 75.751 112.371 75.751 111.924 77.855 C111.769 78.585 111.615 79.315 111.455 80.067 C111 82 111 82 110 85 C110.99 85 111.98 85 113 85 C114.138 89.266 115 92.565 115 97 C115.726 97.276 116.453 97.552 117.201 97.836 C119.862 98.942 122.28 100.192 124.781 101.617 C125.695 102.135 126.608 102.654 127.549 103.188 C128.036 103.466 128.036 103.466 130.5 104.875 C131.519 105.454 132.538 106.034 133.587 106.631 C136.727 108.417 139.864 110.208 143 112 C144.815 113.035 146.63 114.07 148.445 115.105 C152.737 117.555 157.026 120.008 161.315 122.463 C166.146 125.228 170.979 127.989 175.812 130.75 C177.59 131.766 179.367 132.781 181.145 133.797 C181.891 134.223 182.637 134.65 183.406 135.089 C183.932 135.39 184.458 135.69 185 136 C184.67 137.32 184.34 138.64 184 140 C177.79 138.372 172.645 135.015 167.188 131.75 C157.238 125.866 147.213 120.151 137.112 114.532 C136.122 113.981 135.133 113.431 134.113 112.863 C133.245 112.382 132.376 111.9 131.482 111.404 C128.961 109.978 126.477 108.501 124 107 C124.03 108.12 124.059 109.24 124.09 110.394 C124.085 115.259 123.373 119.902 122.563 124.689 C122.41 125.623 122.257 126.558 122.1 127.52 C121.597 130.585 121.084 133.648 120.57 136.711 C120.216 138.847 119.862 140.983 119.509 143.119 C118.768 147.583 118.023 152.047 117.274 156.509 C116.313 162.238 115.366 167.968 114.423 173.7 C113.696 178.105 112.961 182.509 112.225 186.912 C111.872 189.026 111.522 191.14 111.175 193.254 C110.689 196.2 110.194 199.144 109.696 202.087 C109.553 202.965 109.411 203.843 109.264 204.748 C108.228 210.772 108.228 210.772 106 213 C98.071 213.257 89.706 210.988 81.941 209.594 C80.57 209.35 79.198 209.107 77.826 208.864 C74.162 208.215 70.499 207.561 66.836 206.906 C63.02 206.224 59.203 205.547 55.386 204.869 C50.745 204.045 46.105 203.221 41.464 202.394 C31.877 200.687 22.287 198.991 12.695 197.309 C12.112 197.206 12.112 197.206 9.163 196.688 C0.325 195.137 0.325 195.137 -3.952 194.388 C-10.305 193.276 -16.655 192.151 -23 191 C-23.78 190.859 -24.56 190.719 -25.364 190.574 C-27.499 190.185 -29.63 189.784 -31.762 189.379 C-32.93 189.159 -34.099 188.939 -35.303 188.713 C-38 188 -38 188 -40 186 C-40.311 183.079 -40.513 180.241 -40.625 177.312 C-40.664 176.522 -40.702 175.731 -40.742 174.916 C-40.957 170.273 -41.037 165.647 -41 161 C-41.585 160.963 -42.17 160.925 -42.773 160.887 C-51.947 160.184 -60.947 158.584 -70 157 C-69.519 148.341 -66.82 140.489 -64.125 132.316 C-63.635 130.81 -63.145 129.303 -62.657 127.796 C-61.376 123.853 -60.085 119.915 -58.791 115.976 C-57.734 112.751 -56.685 109.524 -55.636 106.296 C-54.385 102.448 -53.13 98.601 -51.875 94.754 C-51.636 94.02 -51.396 93.286 -51.149 92.53 C-50.474 90.461 -49.796 88.394 -49.117 86.326 C-48.732 85.15 -48.346 83.974 -47.949 82.761 C-47 80 -47 80 -46 78 C-46.48 78.161 -46.48 78.161 -48.908 78.975 C-68.231 85.448 -87.566 91.867 -107 98 C-109 95 -109 95 -109 93 C-108.018 92.719 -107.036 92.438 -106.024 92.148 C-95.134 89.003 -84.333 85.624 -73.585 82.026 C-71.763 81.42 -69.939 80.823 -68.111 80.235 C-65.419 79.367 -62.736 78.472 -60.055 77.57 C-59.247 77.316 -58.44 77.061 -57.608 76.799 C-52.423 75.014 -49.202 72.724 -45.53 68.644 C-43.257 66.202 -40.898 64.647 -38 63 C-37.01 63 -36.02 63 -35 63 C-34.835 64.98 -34.835 64.98 -34 75 C-32.998 75.061 -31.997 75.121 -30.965 75.184 C-29.622 75.268 -28.28 75.353 -26.938 75.438 C-26.282 75.478 -26.282 75.478 -22.965 75.684 C-19.263 75.979 -15.666 76.433 -12 77 C-11.89 76.091 -11.781 75.182 -11.668 74.246 C-10.859 67.835 -9.959 61.515 -8.625 55.188 C-6.493 44.928 -5.043 34.56 -3.486 24.201 C-2.645 18.666 -1.758 13.137 -0.863 7.61 C0 2.215 0 2.215 0 0 Z " fill="#705D42" transform="translate(208,218)"/>
<path d="M0 0 C2.506 2.228 3.667 4.159 4.832 7.289 C5.156 8.15 5.48 9.011 5.814 9.898 C6.144 10.798 6.473 11.698 6.812 12.625 C7.13 13.471 7.448 14.316 7.775 15.188 C9.593 20.057 11.338 24.95 13.057 29.855 C16.384 39.345 19.865 48.771 23.409 58.182 C24.396 60.806 25.38 63.432 26.363 66.058 C29.124 73.421 31.892 80.779 34.789 88.09 C35.173 89.064 35.556 90.038 35.952 91.042 C36.625 92.741 37.309 94.436 38.005 96.126 C39.168 99.065 40.002 101.551 39.988 104.73 C38.636 107.836 36.757 109.435 34.188 111.625 C33.315 112.38 32.442 113.136 31.543 113.914 C25.343 119 25.343 119 23 119 C23 119.66 23 120.32 23 121 C21.593 122.248 20.121 123.423 18.625 124.562 C14.978 127.405 11.474 130.316 8.062 133.438 C3.819 137.304 -0.563 140.946 -5.023 144.559 C-8.348 147.285 -11.616 150.071 -14.875 152.875 C-25.794 162.266 -36.727 171.65 -48.016 180.598 C-49.378 181.69 -50.697 182.838 -52 184 C-52 184.66 -52 185.32 -52 186 C-51.459 186.29 -50.918 186.58 -50.361 186.879 C-38.029 193.513 -25.837 200.345 -13.771 207.454 C-12.813 208.018 -11.855 208.583 -10.867 209.164 C-10.023 209.664 -9.178 210.163 -8.308 210.678 C-6.236 211.865 -4.148 212.958 -2 214 C-1.811 232.002 -2.366 249.974 -2.927 267.964 C-3.05 271.927 -3.169 275.89 -3.289 279.854 C-3.523 287.569 -3.76 295.285 -4 303 C-7.563 302.343 -10.209 301.533 -13.344 299.699 C-14.167 299.223 -14.989 298.747 -15.837 298.256 C-16.716 297.739 -17.595 297.221 -18.5 296.688 C-20.4 295.584 -22.299 294.482 -24.199 293.379 C-24.683 293.097 -24.683 293.097 -27.13 291.668 C-30.662 289.615 -34.21 287.593 -37.762 285.576 C-40.339 284.11 -42.908 282.629 -45.477 281.148 C-49.483 278.846 -53.525 276.62 -57.586 274.414 C-59.787 273.193 -61.987 271.972 -64.188 270.75 C-65.234 270.196 -66.28 269.642 -67.359 269.071 C-74.398 265.115 -74.398 265.115 -76.112 261.939 C-77 258.616 -77 255.429 -77 252 C-77.99 252 -78.98 252 -80 252 C-78.987 244.463 -77.643 237.055 -76.02 229.629 C-75.841 228.811 -75.663 227.994 -75.48 227.151 C-74.738 223.757 -73.992 220.364 -73.233 216.974 C-72.673 214.465 -72.126 211.954 -71.582 209.441 C-71.495 209.062 -71.495 209.062 -71.055 207.14 C-69.678 200.706 -70.668 195.762 -72.566 189.492 C-72.883 188.437 -73.2 187.382 -73.526 186.295 C-73.868 185.166 -74.21 184.038 -74.562 182.875 C-77.495 173.104 -80.349 163.316 -83.125 153.5 C-85.357 145.632 -87.636 137.79 -90.125 130 C-90.36 129.264 -90.595 128.528 -90.837 127.769 C-91.308 126.294 -91.78 124.819 -92.251 123.343 C-93.664 118.921 -95.063 114.496 -96.438 110.062 C-96.709 109.215 -96.981 108.367 -97.26 107.494 C-97.503 106.703 -97.746 105.912 -97.996 105.098 C-98.215 104.402 -98.433 103.706 -98.658 102.989 C-99.066 100.616 -98.757 99.279 -98 97 C-96.009 94.724 -94.006 92.607 -91.86 90.487 C-91.219 89.843 -90.578 89.199 -89.918 88.535 C-87.798 86.406 -85.667 84.289 -83.535 82.172 C-82.061 80.698 -80.588 79.224 -79.115 77.75 C-76.026 74.662 -72.933 71.579 -69.836 68.5 C-65.858 64.545 -61.892 60.579 -57.928 56.609 C-54.888 53.565 -51.842 50.526 -48.795 47.488 C-47.33 46.027 -45.866 44.565 -44.404 43.101 C-42.364 41.061 -40.318 39.027 -38.27 36.995 C-37.661 36.384 -37.053 35.773 -36.426 35.144 C-32.229 31 -32.229 31 -30 31 C-29.773 30.443 -29.546 29.886 -29.312 29.312 C-27.624 26.338 -25.533 24.28 -23 22 C-22.34 22 -21.68 22 -21 22 C-21 21.34 -21 20.68 -21 20 C-20.34 20 -19.68 20 -19 20 C-18.835 19.505 -18.835 19.505 -18 17 C-17.34 17 -16.68 17 -16 17 C-15.835 16.505 -15.835 16.505 -15 14 C-14.34 14 -13.68 14 -13 14 C-12.763 13.437 -12.526 12.873 -12.281 12.293 C-10.714 9.487 -8.791 7.562 -6.5 5.312 C-5.706 4.525 -4.912 3.737 -4.094 2.926 C-2 1 -2 1 0 0 Z " fill="#78787B" transform="translate(398,51)"/>
<path d="M0 0 C5.972 4.829 10.982 10.197 16 16 C16.799 16.877 17.598 17.753 18.422 18.656 C19.17 19.512 19.917 20.368 20.688 21.25 C21.372 22.018 22.056 22.787 22.762 23.578 C24 26 24 26 23.283 28.774 C21.981 32.049 20.453 34.983 18.707 38.043 C6.005 61.138 6.005 61.138 8.582 75.145 C9.348 82.206 5.146 87.697 1.562 93.5 C-7 107.506 -7 107.506 -7 110 C-6.67 110.165 -6.67 110.165 -5 111 C-4.794 110.214 -4.588 109.427 -4.375 108.617 C-2.511 103.714 0.185 99.534 3 95.125 C3.547 94.246 4.093 93.367 4.656 92.461 C5.182 91.631 5.708 90.801 6.25 89.945 C6.73 89.188 7.209 88.43 7.703 87.649 C8.131 87.105 8.559 86.561 9 86 C9.66 86 10.32 86 11 86 C11.907 89.158 12.769 92.327 13.625 95.5 C13.753 95.943 13.753 95.943 14.398 98.188 C16.332 105.494 16.047 110.064 12.492 116.898 C11.959 117.716 11.425 118.533 10.875 119.375 C8 123.818 8 123.818 8 126 C8.66 126.33 9.32 126.66 10 127 C10.289 126.257 10.577 125.515 10.875 124.75 C11.061 124.296 11.061 124.296 12 122 C12.289 121.278 12.577 120.556 12.875 119.812 C14.266 117.571 15.643 117.083 18 116 C18.847 118.83 19.677 121.663 20.5 124.5 C20.619 124.896 20.619 124.896 21.223 126.898 C22.719 132.115 23.249 136.575 23 142 C23.66 142.33 24.32 142.66 25 143 C25.892 145.828 26.666 148.615 27.383 151.488 C27.602 152.343 27.821 153.198 28.047 154.078 C28.51 155.891 28.968 157.704 29.423 159.518 C30.12 162.293 30.83 165.064 31.543 167.834 C31.99 169.594 32.437 171.353 32.883 173.113 C33.095 173.943 33.308 174.772 33.527 175.626 C33.72 176.404 33.914 177.181 34.114 177.982 C34.285 178.663 34.457 179.344 34.634 180.045 C35 182 35 182 35 186 C32.133 184.715 30.024 183.429 28 181 C28 180.34 28 179.68 28 179 C27.34 179 26.68 179 26 179 C24.695 177.672 24.695 177.672 23.125 175.75 C19.921 171.97 16.527 168.473 13 165 C9.122 161.171 5.438 157.279 1.906 153.125 C-1.12 149.751 -4.372 146.608 -7.595 143.424 C-10.942 140.102 -14.086 136.682 -17.133 133.082 C-20.081 129.795 -23.259 126.734 -26.446 123.679 C-27.667 122.489 -28.838 121.248 -30 120 C-30 119.34 -30 118.68 -30 118 C-30.66 118 -31.32 118 -32 118 C-33.434 116.538 -33.434 116.538 -35.105 114.512 C-39.577 109.251 -44.498 104.51 -49.479 99.736 C-50.162 99.067 -50.846 98.397 -51.551 97.707 C-52.166 97.114 -52.781 96.521 -53.415 95.909 C-55.274 93.67 -56.231 91.807 -57 89 C-55.649 86.301 -54.302 84.12 -52.562 81.688 C-51.525 80.165 -50.49 78.64 -49.457 77.113 C-48.896 76.292 -48.335 75.47 -47.756 74.624 C-44.629 69.953 -41.704 65.156 -38.75 60.375 C-33.006 51.133 -27.119 41.994 -21.149 32.897 C-17.254 26.952 -13.472 20.96 -9.785 14.883 C-6.658 9.833 -3.331 4.917 0 0 Z " fill="#898686" transform="translate(130,31)"/>
<path d="M0 0 C4.875 1.758 9.293 4.246 13.812 6.75 C14.241 6.987 14.241 6.987 16.412 8.183 C24.725 12.795 32.935 17.582 41.128 22.403 C42.097 22.973 43.065 23.542 44.062 24.129 C44.92 24.635 45.777 25.141 46.66 25.662 C48.743 26.853 50.842 27.953 53 29 C53.189 47.002 52.634 64.974 52.073 82.964 C51.95 86.927 51.831 90.89 51.711 94.854 C51.477 102.569 51.24 110.285 51 118 C47.437 117.343 44.791 116.533 41.656 114.699 C40.833 114.223 40.011 113.747 39.163 113.256 C38.284 112.739 37.405 112.221 36.5 111.688 C34.6 110.584 32.701 109.482 30.801 108.379 C29.834 107.814 28.866 107.25 27.87 106.668 C24.338 104.615 20.79 102.593 17.238 100.576 C14.661 99.11 12.092 97.629 9.523 96.148 C5.517 93.846 1.475 91.62 -2.586 89.414 C-4.787 88.193 -6.987 86.972 -9.188 85.75 C-10.234 85.196 -11.28 84.642 -12.359 84.071 C-19.398 80.115 -19.398 80.115 -21.112 76.939 C-22 73.616 -22 70.429 -22 67 C-22.99 67 -23.98 67 -25 67 C-23.608 56.947 -21.681 47.042 -19.596 37.114 C-19.059 34.544 -18.534 31.972 -18.01 29.4 C-17.665 27.747 -17.319 26.094 -16.973 24.441 C-16.819 23.682 -16.666 22.922 -16.508 22.14 C-15.298 16.473 -13.801 10.982 -9.082 7.227 C-8.55 6.795 -8.019 6.363 -7.471 5.918 C-7.197 5.705 -7.197 5.705 -5.812 4.625 C-5.254 4.175 -4.695 3.725 -4.119 3.262 C-2.754 2.165 -1.378 1.081 0 0 Z " fill="#C1A377" transform="translate(343,236)"/>
<path d="M0 0 C4.022 0.59 6.875 1.863 10.367 3.922 C11.406 4.529 12.445 5.135 13.515 5.76 C14.624 6.417 15.733 7.074 16.875 7.75 C18.633 8.78 20.392 9.807 22.152 10.834 C23.349 11.533 24.546 12.233 25.743 12.934 C31.399 16.245 37.1 19.475 42.812 22.688 C53.567 28.747 64.289 34.864 75 41 C74.67 42.32 74.34 43.64 74 45 C67.79 43.372 62.645 40.015 57.188 36.75 C47.238 30.866 37.213 25.151 27.112 19.532 C26.617 19.257 26.617 19.257 24.113 17.863 C23.245 17.382 22.376 16.9 21.482 16.404 C18.961 14.978 16.477 13.501 14 12 C14.03 13.12 14.059 14.24 14.09 15.394 C14.085 20.259 13.373 24.902 12.563 29.689 C12.487 30.156 12.487 30.156 12.1 32.52 C11.597 35.585 11.084 38.648 10.57 41.711 C10.216 43.847 9.862 45.983 9.509 48.119 C8.768 52.583 8.023 57.047 7.274 61.509 C6.313 67.238 5.366 72.968 4.423 78.7 C3.696 83.105 2.961 87.509 2.225 91.912 C1.872 94.026 1.522 96.14 1.175 98.254 C0.689 101.2 0.194 104.144 -0.304 107.087 C-0.447 107.965 -0.589 108.843 -0.736 109.748 C-1.772 115.772 -1.772 115.772 -4 118 C-11.929 118.257 -20.294 115.988 -28.059 114.594 C-29.43 114.35 -30.802 114.107 -32.174 113.864 C-35.838 113.215 -39.501 112.561 -43.164 111.906 C-46.98 111.224 -50.797 110.547 -54.614 109.869 C-59.255 109.045 -63.895 108.221 -68.536 107.394 C-78.123 105.687 -87.713 103.991 -97.305 102.309 C-98.471 102.104 -99.636 101.899 -100.837 101.688 C-109.675 100.137 -109.675 100.137 -113.952 99.388 C-120.305 98.276 -126.655 97.151 -133 96 C-133.78 95.859 -134.56 95.719 -135.364 95.574 C-137.499 95.185 -139.63 94.784 -141.762 94.379 C-142.93 94.159 -144.099 93.939 -145.303 93.713 C-148 93 -148 93 -150 91 C-150.311 88.079 -150.513 85.241 -150.625 82.312 C-150.664 81.522 -150.702 80.731 -150.742 79.916 C-150.957 75.273 -151.037 70.647 -151 66 C-151.585 65.963 -152.17 65.925 -152.773 65.887 C-161.947 65.184 -170.947 63.584 -180 62 C-180 61.01 -180 60.02 -180 59 C-170.81 59.592 -161.81 60.881 -152.732 62.393 C-151.238 62.638 -149.743 62.883 -148.249 63.127 C-144.228 63.786 -140.208 64.451 -136.189 65.117 C-131.971 65.815 -127.752 66.508 -123.533 67.201 C-116.461 68.365 -109.389 69.532 -102.318 70.702 C-94.142 72.054 -85.966 73.401 -77.789 74.746 C-69.908 76.041 -62.029 77.34 -54.149 78.64 C-50.8 79.192 -47.45 79.744 -44.1 80.295 C-40.164 80.943 -36.228 81.593 -32.293 82.245 C-30.848 82.484 -29.403 82.723 -27.957 82.96 C-25.988 83.283 -24.019 83.61 -22.051 83.937 C-20.948 84.12 -19.845 84.302 -18.709 84.489 C-16 85 -16 85 -13 86 C-8.866 60.401 -5.484 34.693 -2 9 C-1.67 9 -1.34 9 -1 9 C-0.67 6.03 -0.34 3.06 0 0 Z " fill="#8B724E" transform="translate(318,313)"/>
<path d="M0 0 C2.938 2.744 3.976 5.103 5.305 8.926 C5.724 10.116 6.143 11.307 6.574 12.533 C7.003 13.78 7.433 15.028 7.875 16.312 C8.086 16.915 8.086 16.915 9.152 19.963 C10.009 22.412 10.864 24.863 11.716 27.314 C15.166 37.215 18.738 47.065 22.438 56.875 C22.822 57.9 23.207 58.925 23.603 59.981 C25.359 64.658 27.124 69.332 28.914 73.996 C29.055 74.365 29.055 74.365 29.768 76.233 C30.282 77.579 30.801 78.924 31.324 80.267 C32.374 83.021 33 85.02 33 88 C33.66 88.33 34.32 88.66 35 89 C33.625 90.5 33.625 90.5 32 92 C31.34 92 30.68 92 30 92 C30 92.66 30 93.32 30 94 C28.593 95.248 27.121 96.423 25.625 97.562 C21.978 100.405 18.474 103.316 15.062 106.438 C10.819 110.304 6.437 113.946 1.977 117.559 C-1.348 120.285 -4.616 123.071 -7.875 125.875 C-8.458 126.377 -9.042 126.878 -9.643 127.395 C-10.829 128.415 -12.015 129.435 -13.201 130.455 C-16.189 133.021 -19.186 135.576 -22.188 138.125 C-22.728 138.586 -23.269 139.048 -23.826 139.523 C-30.284 145 -30.284 145 -35 145 C-35.885 140.537 -36.757 136.071 -37.618 131.603 C-37.913 130.084 -38.211 128.566 -38.512 127.049 C-38.945 124.864 -39.366 122.676 -39.785 120.488 C-39.922 119.814 -40.058 119.14 -40.199 118.445 C-40.907 114.669 -41.052 111.71 -40 108 C-37.314 110.686 -36.94 113.376 -36 117 C-34.947 114.263 -34.954 113.133 -35.938 110.312 C-38.483 102.376 -36.68 95.895 -33.5 88.438 C-33.166 87.62 -32.832 86.802 -32.488 85.959 C-31.673 83.967 -30.838 81.983 -30 80 C-27.257 82.364 -26.276 84.462 -25.176 87.887 C-25.023 88.356 -25.023 88.356 -24.248 90.729 C-23.939 91.705 -23.631 92.681 -23.312 93.688 C-22.992 94.676 -22.672 95.664 -22.342 96.682 C-21.553 99.119 -20.773 101.558 -20 104 C-18.788 100.364 -19.327 99.487 -20.688 95.992 C-21.056 95.005 -21.425 94.017 -21.805 93 C-22.594 90.937 -23.39 88.877 -24.195 86.82 C-28.093 76.299 -26.653 69.579 -22.438 59.438 C-22.108 58.62 -21.779 57.802 -21.439 56.959 C-20.636 54.969 -19.82 52.984 -19 51 C-16.831 53.169 -16.4 54.355 -15.484 57.227 C-15.205 58.087 -14.926 58.947 -14.639 59.833 C-14.346 60.755 -14.052 61.676 -13.75 62.625 C-10.75 71.854 -7.495 80.948 -4 90 C-2.499 85.389 -4.249 82.213 -6.062 77.938 C-8.756 71.298 -11.242 64.634 -13.438 57.812 C-13.696 57.036 -13.955 56.259 -14.221 55.459 C-14.456 54.716 -14.691 53.973 -14.934 53.207 C-15.14 52.562 -15.347 51.917 -15.56 51.253 C-16.964 44.063 -15.114 38.721 -12.5 32.129 C-12.145 31.207 -11.79 30.284 -11.424 29.334 C-10.293 26.406 -9.147 23.484 -8 20.562 C-7.228 18.571 -6.457 16.58 -5.688 14.588 C-3.804 9.72 -1.907 4.858 0 0 Z " fill="#868789" transform="translate(391,78)"/>
<path d="M0 0 C0.33 0 0.66 0 1 0 C1.165 1.815 1.165 1.815 2 11 C0.35 11 -1.3 11 -3 11 C-2.812 11.514 -2.624 12.028 -2.431 12.557 C-1.833 15.947 -2.477 18.709 -3.109 22.09 C-3.173 22.436 -3.173 22.436 -3.493 24.188 C-3.764 25.67 -4.039 27.152 -4.317 28.633 C-5.043 32.498 -5.742 36.368 -6.441 40.238 C-6.58 41.001 -6.718 41.763 -6.86 42.549 C-7.941 48.556 -8.872 54.575 -9.688 60.625 C-12.805 83.611 -12.805 83.611 -15 88 C-17.354 87.858 -19.708 87.711 -22.062 87.562 C-22.718 87.522 -22.718 87.522 -26.035 87.316 C-29.737 87.021 -33.334 86.567 -37 86 C-37.961 83.118 -38.106 81.301 -38.062 78.312 C-38.053 77.504 -38.044 76.696 -38.035 75.863 C-38.024 75.248 -38.012 74.634 -38 74 C-42.339 75.387 -44.464 77.357 -47.535 80.664 C-55.25 87.852 -64.545 90.285 -74.438 93.375 C-76.262 93.967 -78.086 94.562 -79.908 95.16 C-83.386 96.297 -86.869 97.414 -90.359 98.515 C-93.195 99.412 -96.014 100.34 -98.817 101.337 C-99.879 101.713 -100.941 102.089 -102.035 102.477 C-102.476 102.638 -102.476 102.638 -104.707 103.456 C-107.214 104.051 -108.595 103.847 -111 103 C-102.22 90.502 -93.318 78.097 -84.354 65.729 C-82.715 63.466 -81.076 61.202 -79.438 58.938 C-78.905 58.203 -78.373 57.468 -77.825 56.711 C-75.073 52.903 -72.347 49.081 -69.656 45.23 C-69.386 44.844 -69.386 44.844 -68.018 42.889 C-66.994 41.422 -65.973 39.952 -64.957 38.48 C-60.167 31.616 -56.432 28.413 -48.5 25.688 C-47.667 25.391 -46.834 25.095 -45.976 24.79 C-43.321 23.848 -40.661 22.923 -38 22 C-36.264 21.39 -34.528 20.779 -32.793 20.168 C-31.946 19.871 -31.099 19.574 -30.227 19.268 C-28.539 18.674 -26.853 18.078 -25.168 17.479 C-21.391 16.143 -17.631 14.869 -13.77 13.801 C-4.791 11.149 -4.791 11.149 -2.258 7.469 C-1.241 4.973 -0.503 2.643 0 0 Z " fill="#AB9069" transform="translate(211,207)"/>
<path d="M0 0 C2.506 2.228 3.667 4.159 4.832 7.289 C4.994 7.72 4.994 7.72 5.814 9.898 C6.144 10.798 6.473 11.698 6.812 12.625 C7.13 13.471 7.448 14.316 7.775 15.188 C9.593 20.057 11.338 24.95 13.057 29.855 C16.384 39.345 19.865 48.771 23.409 58.182 C24.396 60.806 25.38 63.432 26.363 66.058 C29.124 73.421 31.892 80.779 34.789 88.09 C35.173 89.064 35.556 90.038 35.952 91.042 C36.625 92.741 37.309 94.436 38.005 96.126 C39.164 99.055 39.999 101.55 40.004 104.719 C38.601 107.906 36.58 109.571 33.938 111.812 C33.478 112.208 33.478 112.208 31.152 114.207 C30.442 114.799 29.732 115.39 29 116 C28.01 115.67 27.02 115.34 26 115 C24.861 112.558 23.922 110.213 23.031 107.68 C22.755 106.922 22.478 106.163 22.193 105.382 C21.284 102.884 20.392 100.38 19.5 97.875 C18.874 96.144 18.247 94.413 17.619 92.683 C15.729 87.461 13.861 82.232 12 77 C11.727 76.232 11.454 75.464 11.172 74.672 C9.009 68.584 6.852 62.493 4.707 56.398 C2.04 48.842 -0.751 41.355 -3.705 33.907 C-11 15.42 -11 15.42 -11 10 C-9.102 7.773 -9.102 7.773 -6.625 5.375 C-6.219 4.977 -6.219 4.977 -4.164 2.961 C-2 1 -2 1 0 0 Z " fill="#33507D" transform="translate(398,51)"/>
<path d="M0 0 C3.806 3.208 7.546 6.407 11 10 C9.555 15.221 7.174 19.128 4.188 23.562 C3.188 25.076 2.191 26.59 1.195 28.105 C0.672 28.901 0.149 29.697 -0.39 30.517 C-3.142 34.76 -5.788 39.068 -8.438 43.375 C-12.65 50.212 -16.892 57.028 -21.188 63.812 C-29.212 76.488 -37.159 89.21 -45 102 C-48.668 100.497 -50.689 98.363 -53.25 95.375 C-53.956 94.558 -54.663 93.74 -55.391 92.898 C-55.922 92.272 -56.453 91.645 -57 91 C-55.562 87.008 -53.648 83.724 -51.312 80.188 C-47.071 73.704 -42.963 67.144 -38.875 60.562 C-33.086 51.26 -27.16 42.057 -21.15 32.897 C-17.254 26.952 -13.472 20.96 -9.785 14.883 C-6.658 9.833 -3.331 4.917 0 0 Z " fill="#7C3232" transform="translate(130,31)"/>
<path d="M0 0 C0.33 0 0.66 0 1 0 C1.221 2.124 1.427 4.249 1.625 6.375 C1.741 7.558 1.857 8.742 1.977 9.961 C1.98 10.462 1.98 10.462 2 13 C-0.522 15.522 -1.469 15.292 -4.968 15.411 C-6.009 15.451 -7.051 15.49 -8.125 15.531 C-9.263 15.565 -10.401 15.598 -11.574 15.633 C-12.164 15.654 -12.164 15.654 -15.15 15.759 C-18.996 15.891 -22.842 16.009 -26.688 16.125 C-29.302 16.211 -31.917 16.296 -34.531 16.382 C-52.361 16.949 -70.162 17.263 -88 17 C-88.66 12.71 -89.32 8.42 -90 4 C-60.053 2.051 -30 1.804 0 2 C0 1.34 0 0.68 0 0 Z " fill="#766C02" transform="translate(293,151)"/>
<path d="M0 0 C0.33 0 0.66 0 1 0 C1 2.31 1 4.62 1 7 C1.699 6.988 2.397 6.977 3.117 6.965 C4.027 6.956 4.937 6.947 5.875 6.938 C6.78 6.926 7.685 6.914 8.617 6.902 C11 7 11 7 13 8 C13.86 10.471 14.604 12.9 15.297 15.418 C15.513 16.177 15.728 16.936 15.951 17.718 C16.408 19.329 16.862 20.941 17.314 22.554 C18.189 25.673 19.087 28.786 19.985 31.899 C20.86 34.937 21.727 37.976 22.595 41.016 C23.263 43.357 23.932 45.697 24.602 48.037 C25.031 49.542 25.461 51.046 25.891 52.551 C26.089 53.242 26.286 53.934 26.49 54.647 C27.376 57.753 28.246 60.858 29 64 C26.479 63.858 23.958 63.711 21.438 63.562 C20.733 63.523 20.029 63.484 19.303 63.443 C14.82 63.175 10.437 62.694 6 62 C5.67 62.66 5.34 63.32 5 64 C4.952 63.378 4.904 62.756 4.855 62.115 C4.357 55.659 3.853 49.203 3.346 42.748 C3.157 40.336 2.97 37.925 2.784 35.513 C2.518 32.053 2.246 28.593 1.973 25.133 C1.89 24.049 1.808 22.966 1.723 21.85 C1.683 21.349 1.683 21.349 1.481 18.817 C1.412 17.933 1.343 17.049 1.272 16.139 C1 14 1 14 0 12 C-0.071 9.959 -0.084 7.917 -0.062 5.875 C-0.053 4.779 -0.044 3.684 -0.035 2.555 C-0.024 1.712 -0.012 0.869 0 0 Z " fill="#A88F69" transform="translate(294,166)"/>
<path d="M0 0 C2.972 1.125 5.334 2.223 8 4 C8.33 6.182 8.33 6.182 8.254 8.88 C8.24 9.375 8.24 9.375 8.17 11.883 C7.895 16.913 7.456 21.912 6.941 26.922 C6.833 28.025 6.724 29.128 6.612 30.264 C6.267 33.76 5.915 37.255 5.562 40.75 C5.102 45.349 4.646 49.948 4.191 54.547 C4.136 55.099 4.136 55.099 3.858 57.895 C3.294 63.644 2.82 69.377 2.5 75.145 C2.037 82.842 0.775 90.357 -0.562 97.938 C-0.8 99.314 -1.036 100.691 -1.271 102.068 C-1.841 105.38 -2.417 108.691 -3 112 C-3.33 112 -3.66 112 -4 112 C-4.092 100.145 -3.811 88.33 -3.379 76.484 C-3.314 74.653 -3.249 72.821 -3.184 70.989 C-3.049 67.181 -2.912 63.372 -2.773 59.563 C-2.597 54.714 -2.425 49.863 -2.256 45.013 C-2.123 41.242 -1.988 37.47 -1.851 33.699 C-1.787 31.911 -1.724 30.124 -1.661 28.336 C-1.329 18.866 -0.927 9.435 0 0 Z " fill="#6E5A3C" transform="translate(319,317)"/>
<path d="M0 0 C9.19 0.592 18.19 1.881 27.268 3.393 C28.762 3.638 30.257 3.883 31.751 4.127 C35.772 4.786 39.792 5.451 43.811 6.117 C48.029 6.815 52.248 7.508 56.467 8.201 C63.539 9.365 70.611 10.532 77.682 11.702 C85.858 13.054 94.034 14.401 102.211 15.746 C110.092 17.041 117.971 18.34 125.851 19.64 C129.2 20.192 132.55 20.744 135.9 21.295 C139.836 21.943 143.772 22.593 147.707 23.245 C149.152 23.484 150.597 23.723 152.043 23.96 C154.012 24.283 155.981 24.61 157.949 24.937 C159.052 25.12 160.155 25.302 161.291 25.489 C164 26 164 26 167 27 C167.33 27.99 167.66 28.98 168 30 C152.261 27.834 136.589 25.338 120.918 22.727 C118.446 22.317 115.975 21.907 113.503 21.497 C107.04 20.426 100.577 19.352 94.114 18.278 C82.591 16.362 71.067 14.449 59.543 12.539 C58.321 12.336 57.099 12.134 55.84 11.925 C37.243 8.844 18.637 5.834 0 3 C0 2.01 0 1.02 0 0 Z " fill="#917A58" transform="translate(138,372)"/>
<path d="M0 0 C2.506 2.228 3.667 4.159 4.832 7.289 C5.156 8.15 5.48 9.011 5.814 9.898 C5.979 10.348 5.979 10.348 6.812 12.625 C7.13 13.471 7.448 14.316 7.775 15.188 C9.593 20.057 11.338 24.95 13.057 29.855 C16.384 39.345 19.865 48.771 23.409 58.182 C24.396 60.806 25.38 63.432 26.363 66.058 C29.124 73.421 31.892 80.779 34.789 88.09 C35.173 89.064 35.556 90.038 35.952 91.042 C36.625 92.741 37.309 94.436 38.005 96.126 C39.586 100.121 40.44 102.852 39 107 C35.529 103.847 34.309 100.122 32.742 95.801 C32.438 94.982 32.134 94.164 31.82 93.321 C30.831 90.654 29.853 87.983 28.875 85.312 C28.192 83.467 27.509 81.622 26.825 79.777 C25.479 76.144 24.136 72.51 22.797 68.874 C20.661 63.073 18.49 57.285 16.312 51.5 C15.63 49.678 14.948 47.857 14.266 46.035 C12.745 41.979 11.217 37.925 9.686 33.872 C8.582 30.95 7.481 28.027 6.379 25.104 C5.842 23.678 5.303 22.252 4.763 20.827 C4.007 18.832 3.255 16.836 2.504 14.84 C2.286 14.264 2.286 14.264 1.186 11.351 C-0.027 7.924 -1.038 4.504 -2 1 C-1.34 0.67 -0.68 0.34 0 0 Z " fill="#808084" transform="translate(398,51)"/>
<path d="M0 0 C0.66 0.33 1.32 0.66 2 1 C0.7 4.504 -0.83 7.501 -2.875 10.625 C-3.498 11.587 -4.12 12.548 -4.762 13.539 C-5.114 14.082 -5.467 14.625 -5.83 15.185 C-8.143 18.772 -10.411 22.389 -12.688 26 C-13.729 27.65 -14.771 29.3 -15.812 30.949 C-17.918 34.284 -20.022 37.621 -22.125 40.957 C-27.213 49.026 -32.31 57.086 -37.5 65.09 C-39.56 68.287 -41.563 71.518 -43.562 74.754 C-44.191 75.763 -44.82 76.772 -45.467 77.811 C-46.726 79.832 -47.976 81.858 -49.216 83.89 C-49.792 84.811 -50.368 85.731 -50.961 86.68 C-51.474 87.512 -51.988 88.345 -52.517 89.203 C-53.006 89.796 -53.496 90.389 -54 91 C-54.99 91 -55.98 91 -57 91 C-55.562 87.008 -53.648 83.724 -51.312 80.188 C-47.071 73.704 -42.963 67.144 -38.875 60.562 C-33.086 51.26 -27.16 42.057 -21.15 32.897 C-17.254 26.952 -13.472 20.96 -9.785 14.883 C-6.658 9.833 -3.331 4.917 0 0 Z " fill="#817B7B" transform="translate(130,31)"/>
<path d="M0 0 C-0.551 1.829 -0.551 1.829 -2 4 C-4.428 5.106 -6.661 5.949 -9.191 6.734 C-9.921 6.974 -10.65 7.213 -11.402 7.46 C-13.784 8.238 -16.173 8.994 -18.562 9.75 C-20.197 10.279 -21.831 10.809 -23.464 11.341 C-27.54 12.664 -31.622 13.969 -35.706 15.269 C-39.123 16.358 -42.536 17.461 -45.949 18.562 C-51.628 20.392 -57.311 22.205 -63 24 C-65 21 -65 21 -65 19 C-64.02 18.723 -63.04 18.446 -62.031 18.161 C-50.11 14.748 -38.402 10.807 -26.688 6.75 C-23.919 5.794 -21.15 4.839 -18.38 3.886 C-16.675 3.299 -14.971 2.71 -13.268 2.12 C-12.503 1.855 -11.737 1.591 -10.948 1.319 C-10.614 1.204 -10.614 1.204 -8.923 0.618 C-3.436 -1.145 -3.436 -1.145 0 0 Z " fill="#8C7655" transform="translate(164,292)"/>
<path d="M0 0 C2.472 1.262 2.472 1.262 5 3 C5.909 10.716 4.126 18.402 2.812 26.004 C2.588 27.336 2.363 28.669 2.14 30.001 C1.555 33.479 0.96 36.955 0.364 40.432 C-0.244 43.991 -0.844 47.551 -1.445 51.111 C-2.622 58.076 -3.808 65.038 -5 72 C-5.33 72 -5.66 72 -6 72 C-6.182 64.046 -5.468 56.249 -4.688 48.34 C-4.553 46.94 -4.418 45.541 -4.284 44.141 C-3.933 40.486 -3.576 36.832 -3.219 33.178 C-2.854 29.437 -2.493 25.696 -2.133 21.955 C-1.427 14.636 -0.715 7.318 0 0 Z " fill="#886F4B" transform="translate(327,321)"/>
<path d="M0 0 C0 1.65 0 3.3 0 5 C-0.165 4.505 -0.165 4.505 -1 2 C-1.845 2.159 -2.691 2.318 -3.562 2.481 C-7.077 3.012 -10.455 3.199 -14.008 3.297 C-14.682 3.317 -15.357 3.336 -16.051 3.357 C-18.266 3.42 -20.48 3.478 -22.695 3.535 C-24.25 3.578 -25.804 3.622 -27.359 3.665 C-30.615 3.756 -33.872 3.844 -37.128 3.93 C-41.27 4.039 -45.412 4.153 -49.554 4.27 C-52.766 4.359 -55.978 4.447 -59.19 4.535 C-60.715 4.576 -62.241 4.618 -63.766 4.66 C-72.512 4.9 -81.25 5.061 -90 5 C-90 4.34 -90 3.68 -90 3 C-60.029 1.304 -30.031 -0.352 0 0 Z " fill="#8C8C88" transform="translate(293,148)"/>
<path d="M0 0 C0.66 0.33 1.32 0.66 2 1 C1.418 5.332 -0.145 8.278 -2.43 11.98 C-2.776 12.547 -3.123 13.113 -3.48 13.697 C-4.605 15.531 -5.74 17.359 -6.875 19.188 C-7.65 20.447 -8.424 21.708 -9.197 22.968 C-10.738 25.478 -12.283 27.984 -13.831 30.489 C-16.26 34.417 -18.671 38.356 -21.079 42.298 C-22.005 43.815 -22.933 45.33 -23.863 46.844 C-26.891 51.782 -26.891 51.782 -28 54 C-28.99 53.67 -29.98 53.34 -31 53 C-29.716 48.705 -28.089 45.217 -25.688 41.438 C-24.972 40.301 -24.258 39.164 -23.543 38.027 C-23.144 37.397 -22.745 36.766 -22.333 36.117 C-19.695 31.928 -17.102 27.711 -14.5 23.5 C-13.382 21.694 -12.263 19.888 -11.145 18.082 C-7.418 12.062 -3.705 6.033 0 0 Z " fill="#6A2A2A" transform="translate(153,88)"/>
<path d="M0 0 C2.29 3.435 3.598 6.962 5 10.812 C5.295 11.617 5.591 12.421 5.895 13.25 C9.338 22.745 12.484 32.344 15.623 41.943 C16.032 43.187 16.442 44.432 16.863 45.715 C17.227 46.83 17.591 47.945 17.966 49.094 C19 52 19 52 20.149 54.256 C21 56 21 56 20.75 58.188 C20 60 20 60 18 61 C6.277 28.003 6.277 28.003 1.75 14.688 C1.463 13.861 1.176 13.034 0.881 12.183 C-0.399 8.375 -1.473 5.076 -1 1 C-0.67 0.67 -0.34 0.34 0 0 Z " fill="#2A3D6D" transform="translate(368,108)"/>
<path d="M0 0 C0.66 0.33 1.32 0.66 2 1 C-0.266 13.103 -10.835 25.309 -17.276 35.672 C-21.013 41.7 -24.64 47.753 -28 54 C-28.99 53.67 -29.98 53.34 -31 53 C-29.281 48.143 -26.721 43.863 -24.125 39.438 C-23.644 38.613 -23.163 37.788 -22.667 36.938 C-19.038 30.732 -15.373 24.547 -11.688 18.375 C-11.209 17.571 -10.73 16.767 -10.237 15.939 C-6.982 10.516 -3.552 5.233 0 0 Z " fill="#622525" transform="translate(168,104)"/>
<path d="M0 0 C0.66 0.33 1.32 0.66 2 1 C1.429 5.338 -0.136 8.158 -2.5 11.812 C-5.64 16.752 -8.599 21.757 -11.438 26.875 C-14.517 32.409 -17.675 37.885 -20.938 43.312 C-21.126 43.627 -21.126 43.627 -22.082 45.216 C-23.672 47.849 -25.294 50.44 -27 53 C-27.99 53 -28.98 53 -30 53 C-29.323 49.372 -27.786 46.626 -25.938 43.449 C-25.31 42.365 -24.682 41.281 -24.035 40.164 C-23.357 39.005 -22.678 37.846 -22 36.688 C-21.312 35.506 -20.625 34.323 -19.938 33.141 C-13.452 21.997 -6.894 10.898 0 0 Z " fill="#5F2424" transform="translate(182,120)"/>
<path d="M0 0 C0.66 0 1.32 0 2 0 C1.407 3.897 0.233 6.761 -1.703 10.184 C-2.265 11.184 -2.828 12.184 -3.407 13.215 C-4.015 14.278 -4.623 15.342 -5.25 16.438 C-5.561 16.985 -5.561 16.985 -7.134 19.758 C-9.08 23.177 -11.039 26.589 -13 30 C-13.311 30.545 -13.311 30.545 -14.886 33.305 C-16.642 36.377 -18.412 39.44 -20.188 42.5 C-20.727 43.443 -21.267 44.386 -21.823 45.357 C-22.329 46.219 -22.835 47.081 -23.355 47.969 C-23.795 48.726 -24.235 49.483 -24.688 50.264 C-26 52 -26 52 -29 53 C-28.502 47.948 -26.744 44.393 -24.062 40.188 C-23.24 38.859 -22.418 37.529 -21.598 36.199 C-21.17 35.511 -20.742 34.823 -20.301 34.115 C-18.144 30.61 -16.076 27.053 -14 23.5 C-13.167 22.084 -12.334 20.669 -11.5 19.254 C-9.803 16.371 -8.118 13.482 -6.438 10.59 C-5.625 9.206 -4.813 7.821 -4 6.438 C-3.813 6.113 -3.813 6.113 -2.867 4.469 C-1.967 2.945 -0.991 1.467 0 0 Z " fill="#5F2424" transform="translate(196,136)"/>
<path d="M0 0 C1.895 2.842 2.794 5.034 3.848 8.25 C4.025 8.786 4.025 8.786 4.921 11.496 C5.297 12.652 5.674 13.809 6.062 15 C6.861 17.439 7.661 19.878 8.461 22.316 C8.564 22.63 8.564 22.63 9.083 24.218 C10.56 28.714 12.1 33.186 13.664 37.652 C14.087 38.874 14.51 40.095 14.945 41.354 C15.763 43.712 16.591 46.066 17.432 48.416 C17.799 49.484 18.165 50.552 18.543 51.652 C18.873 52.591 19.203 53.529 19.544 54.496 C20.079 57.434 19.609 58.543 18 61 C15.711 57.566 14.618 54.105 13.391 50.211 C13.141 49.434 12.892 48.658 12.635 47.857 C11.836 45.365 11.042 42.87 10.25 40.375 C9.217 37.132 8.179 33.89 7.141 30.648 C6.887 29.849 6.632 29.049 6.371 28.225 C5.067 24.16 3.701 20.135 2.201 16.138 C1.914 15.363 1.626 14.589 1.33 13.791 C0.78 12.326 0.217 10.865 -0.36 9.41 C-2.184 4.539 -2.184 4.539 -1.155 1.529 C-0.774 1.024 -0.393 0.52 0 0 Z " fill="#253762" transform="translate(353,122)"/>
<path d="M0 0 C0.66 0 1.32 0 2 0 C4.323 7.431 6.645 14.861 8.963 22.293 C9.822 25.045 10.681 27.797 11.54 30.549 C11.977 31.951 12.414 33.353 12.851 34.754 C13.498 36.829 14.145 38.903 14.793 40.977 C14.981 41.58 14.981 41.58 15.934 44.635 C16.638 46.856 17.379 49.065 18.161 51.259 C19.092 54.3 18.887 55.984 18 59 C16 58 16 58 14.843 54.836 C14.412 53.423 13.99 52.007 13.574 50.59 C13.345 49.83 13.115 49.07 12.879 48.288 C12.141 45.84 11.414 43.389 10.688 40.938 C9.972 38.55 9.255 36.163 8.537 33.776 C8.062 32.193 7.587 30.609 7.115 29.025 C5.145 22.435 3.084 15.875 0.991 9.323 C0.162 6.542 -0.594 3.872 -1 1 C-0.67 0.67 -0.34 0.34 0 0 Z " fill="#263862" transform="translate(338,137)"/>
<path d="M0 0 C2.482 2.482 2.902 4.408 3.918 7.766 C4.282 8.956 4.646 10.146 5.022 11.373 C5.411 12.665 5.799 13.958 6.188 15.25 C6.99 17.893 7.796 20.534 8.602 23.176 C8.803 23.838 9.004 24.5 9.212 25.183 C10.478 29.339 11.792 33.477 13.148 37.605 C13.473 38.597 13.798 39.589 14.132 40.61 C14.737 42.449 15.349 44.286 15.968 46.12 C17.419 50.561 18.362 54.259 18 59 C17.34 59 16.68 59 16 59 C11.878 46.247 7.776 33.494 3.992 20.636 C2.63 16.024 1.155 11.478 -0.469 6.951 C-1.166 4.391 -0.881 2.483 0 0 Z " fill="#243662" transform="translate(324,150)"/>
<path d="M0 0 C0.99 0.33 1.98 0.66 3 1 C1.625 2.5 1.625 2.5 0 4 C-0.66 4 -1.32 4 -2 4 C-2 4.66 -2 5.32 -2 6 C-3.407 7.248 -4.879 8.423 -6.375 9.562 C-10.022 12.405 -13.526 15.316 -16.938 18.438 C-21.181 22.304 -25.563 25.946 -30.023 29.559 C-33.348 32.285 -36.616 35.071 -39.875 37.875 C-40.46 38.377 -41.045 38.878 -41.647 39.395 C-44.643 41.966 -47.629 44.547 -50.605 47.141 C-51.758 48.136 -52.91 49.13 -54.062 50.125 C-54.586 50.586 -55.11 51.048 -55.65 51.523 C-58.611 54.067 -61.282 55.786 -65 57 C-61.319 52.049 -57.021 48.454 -52.215 44.609 C-48.627 41.725 -45.157 38.712 -41.688 35.688 C-40.405 34.572 -39.122 33.456 -37.84 32.34 C-37.203 31.785 -36.566 31.231 -35.91 30.66 C-27.888 23.688 -19.807 16.811 -11.555 10.113 C-7.608 6.849 -3.795 3.439 0 0 Z " fill="#969699" transform="translate(423,166)"/>
<path d="M0 0 C16.5 0 33 0 50 0 C50 0.99 50 1.98 50 3 C33.83 3 17.66 3 1 3 C0.67 2.01 0.34 1.02 0 0 Z " fill="#6A5E00" transform="translate(228,201)"/>
<path d="M0 0 C16.17 0 32.34 0 49 0 C49 0.99 49 1.98 49 3 C32.83 3 16.66 3 0 3 C0 2.01 0 1.02 0 0 Z " fill="#6A5F08" transform="translate(234,240)"/>
<path d="M0 0 C15.84 0 31.68 0 48 0 C48 0.99 48 1.98 48 3 C32.49 3 16.98 3 1 3 C0.67 2.01 0.34 1.02 0 0 Z " fill="#6A5E00" transform="translate(232,221)"/>
<path d="M0 0 C15.51 0 31.02 0 47 0 C47 0.99 47 1.98 47 3 C31.49 3 15.98 3 0 3 C0 2.01 0 1.02 0 0 Z " fill="#6A5F08" transform="translate(237,258)"/>
<path d="M0 0 C0.66 0.33 1.32 0.66 2 1 C0.982 8.104 -0.099 15.075 -2 22 C-2.66 22 -3.32 22 -4 22 C-5.65 17.71 -7.3 13.42 -9 9 C-6.03 6.03 -3.06 3.06 0 0 Z " fill="#2C4770" transform="translate(395,53)"/>
<path d="M0 0 C0.66 0.33 1.32 0.66 2 1 C1.421 4.946 0.229 7.669 -1.871 11.047 C-2.445 11.974 -3.02 12.901 -3.611 13.855 C-4.214 14.811 -4.817 15.766 -5.438 16.75 C-6.036 17.721 -6.635 18.691 -7.252 19.691 C-11.732 26.866 -11.732 26.866 -14 28 C-13.641 21.441 -11.078 17.2 -7.562 11.75 C-7.059 10.948 -6.556 10.146 -6.037 9.32 C-4.064 6.186 -2.055 3.082 0 0 Z " fill="#5F2323" transform="translate(153,88)"/>
<path d="M0 0 C0.33 0.66 0.66 1.32 1 2 C0.064 4.36 -0.933 6.696 -2 9 C-2.66 9 -3.32 9 -4 9 C-4.122 9.338 -4.122 9.338 -4.739 11.05 C-6.264 14.618 -8.183 17.887 -10.176 21.207 C-10.583 21.891 -10.99 22.575 -11.409 23.28 C-12.707 25.46 -14.01 27.636 -15.312 29.812 C-16.177 31.263 -17.041 32.715 -17.904 34.166 C-21.869 40.82 -25.852 47.458 -30 54 C-31 51 -31 51 -29.775 48.454 C-29.461 47.949 -29.461 47.949 -27.871 45.391 C-27.53 44.835 -27.189 44.279 -26.837 43.707 C-25.713 41.882 -24.575 40.066 -23.438 38.25 C-22.662 36.996 -21.887 35.741 -21.114 34.485 C-19.529 31.917 -17.94 29.352 -16.348 26.789 C-12.837 21.134 -9.39 15.44 -5.938 9.75 C-4.78 7.849 -3.623 5.948 -2.465 4.047 C-1.987 3.262 -1.508 2.476 -1.015 1.667 C-0.68 1.117 -0.345 0.567 0 0 Z " fill="#C3A478" transform="translate(201,228)"/>
<path d="M0 0 C2.6 4.968 4.365 10.23 6.25 15.5 C6.639 16.545 7.029 17.591 7.43 18.668 C7.609 19.171 7.609 19.171 8.516 21.719 C8.849 22.636 9.181 23.553 9.524 24.498 C10.084 27.442 9.613 28.535 8 31 C5.238 26.858 3.91 22.443 2.312 17.75 C1.979 16.821 1.646 15.891 1.303 14.934 C-0.56 9.458 -1.413 5.651 0 0 Z " fill="#283C6D" transform="translate(363,152)"/>
<path d="M0 0 C2.19 4.38 2.108 7.14 1.758 11.828 C1.711 12.577 1.663 13.326 1.615 14.098 C1.462 16.483 1.294 18.866 1.125 21.25 C1.019 22.87 0.913 24.49 0.809 26.109 C0.551 30.074 0.279 34.037 0 38 C-0.33 38.165 -0.33 38.165 -2 39 C-2.198 35.313 -2.382 31.625 -2.562 27.938 C-2.619 26.899 -2.675 25.861 -2.732 24.791 C-2.991 19.359 -3.024 14.348 -2 9 C-1.67 9 -1.34 9 -1 9 C-0.67 6.03 -0.34 3.06 0 0 Z " fill="#836B48" transform="translate(318,313)"/>
<path d="M0 0 C0.66 0.33 1.32 0.66 2 1 C1.859 1.72 1.718 2.439 1.573 3.18 C0.921 6.516 0.273 9.852 -0.375 13.188 C-0.597 14.319 -0.818 15.45 -1.047 16.615 C-2.552 24.386 -3.854 32.169 -5 40 C-5.99 40 -6.98 40 -8 40 C-6.71 30.786 -4.947 21.755 -2.875 12.688 C-2.598 11.458 -2.321 10.229 -2.035 8.963 C-1.361 5.974 -0.682 2.987 0 0 Z " fill="#B29366" transform="translate(326,263)"/>
<path d="M0 0 C2.31 0 4.62 0 7 0 C5.638 3.067 4.103 5.118 1.688 7.438 C1.071 8.036 0.455 8.634 -0.18 9.25 C-0.78 9.827 -1.381 10.405 -2 11 C-2.982 11.977 -3.961 12.956 -4.938 13.938 C-5.618 14.618 -6.299 15.299 -7 16 C-5.354 10.315 -2.71 5.233 0 0 Z " fill="#8C7655" transform="translate(263,305)"/>
<path d="M0 0 C1.868 2.803 2.999 5.242 4.188 8.375 C4.552 9.311 4.917 10.247 5.293 11.211 C6.061 14.24 5.849 16.026 5 19 C2.659 16.659 2.007 14.785 0.875 11.688 C0.522 10.743 0.169 9.798 -0.195 8.824 C-0.989 6.039 -1.234 3.877 -1 1 C-0.67 0.67 -0.34 0.34 0 0 Z " fill="#213561" transform="translate(368,108)"/>
<path d="M0 0 C2.724 5.059 4.679 9.29 3 15 C1 14 1 14 0.078 11.602 C-0.195 10.619 -0.468 9.637 -0.75 8.625 C-1.034 7.648 -1.317 6.671 -1.609 5.664 C-2 3 -2 3 0 0 Z " fill="#2D406E" transform="translate(353,181)"/>
<path d="M0 0 C0.33 0 0.66 0 1 0 C1.33 3.63 1.66 7.26 2 11 C0.35 11 -1.3 11 -3 11 C-2.449 7.051 -1.611 3.651 0 0 Z " fill="#A18863" transform="translate(211,207)"/>
<path d="M0 0 C0.66 1.32 1.32 2.64 2 4 C0.515 5.32 0.515 5.32 -7 12 C-7.99 11.34 -8.98 10.68 -10 10 C-9.362 9.446 -8.724 8.891 -8.066 8.32 C-7.24 7.596 -6.414 6.871 -5.562 6.125 C-4.739 5.406 -3.915 4.686 -3.066 3.945 C-1 2 -1 2 0 0 Z " fill="#3A598A" transform="translate(434,155)"/>
<path d="M0 0 C0.66 0 1.32 0 2 0 C2.66 3.63 3.32 7.26 4 11 C2.35 10.67 0.7 10.34 -1 10 C-0.67 6.7 -0.34 3.4 0 0 Z " fill="#746145" transform="translate(319,303)"/>
<path d="M0 0 C0 4.323 -1.99 6.974 -5 10 C-8.312 10.938 -8.312 10.938 -11 11 C-7.619 6.864 -4.334 3.187 0 0 Z " fill="#7D694E" transform="translate(169,281)"/>
<path d="M0 0 C0.66 0.66 1.32 1.32 2 2 C1.977 4.602 1.977 4.602 1.625 7.625 C1.514 8.628 1.403 9.631 1.289 10.664 C1.194 11.435 1.098 12.206 1 13 C0.01 13 -0.98 13 -2 13 C-1.34 8.71 -0.68 4.42 0 0 Z " fill="#A98B61" transform="translate(320,290)"/>
<path d="M0 0 C0.66 0.33 1.32 0.66 2 1 C0.868 4.395 -0.429 5.58 -3 8 C-3.578 8.578 -4.155 9.155 -4.75 9.75 C-4.956 9.956 -4.956 9.956 -6 11 C-4.55 6.89 -2.489 3.567 0 0 Z " fill="#848080" transform="translate(130,31)"/>
<path d="M0 0 C0.66 1.32 1.32 2.64 2 4 C1.01 4.825 1.01 4.825 -4 9 C-2.801 5.917 -1.523 2.937 0 0 Z " fill="#C5A577" transform="translate(206,219)"/>
</svg>
